<?xml version="1.0" encoding="utf-8"?>
<!-- Generator: Adobe Illustrator 28.1.0, SVG Export Plug-In . SVG Version: 6.00 Build 0)  -->
<svg version="1.1" id="Layer_1" xmlns="http://www.w3.org/2000/svg" xmlns:xlink="http://www.w3.org/1999/xlink" x="0px" y="0px"
	 viewBox="0 0 771.9 504.6" style="enable-background:new 0 0 771.9 504.6;" xml:space="preserve">
<style type="text/css">
	.st0{fill:#F1F2F2;}
	.st1{fill:#58595B;}
	.st2{fill:#FEC872;}
	.st3{fill:#F4B962;}
	.st4{fill:#6D6E71;}
	.st5{fill:#FBED73;}
	.st6{fill:#939598;}
	.st7{fill:#CFAA96;}
	.st8{fill:#C4A191;}
	.st9{fill:#666666;}
	.st10{fill:#EBF0F3;}
	.st11{fill:#4D4D4D;}
</style>
<path class="st0" d="M4.1,81.7c0.8,6.7,6.1,11.9,12.7,12.9c18.5,2.3,37.2,3.2,55.8,2.8l33.5,37.2L95.4,96.3
	c6.9-0.5,13.7-1.1,20.7-1.9c6.6-0.8,11.9-6,12.9-12.6c3.1-21.1,3.1-42.5-0.2-63.5c-1-6.6-6.2-11.8-12.8-12.7
	c-32.8-4.9-66.2-4.9-99.1,0C10.2,6.5,5,11.7,4.1,18.3C1.2,39.4,1.2,60.7,4.1,81.7z"/>
<path class="st1" d="M106.2,136.5c-0.5,0-1.1-0.2-1.4-0.6L71.8,99.3c-18.4,0.3-36.9-0.6-55.2-2.8C9,95.4,3.1,89.5,2.2,81.9
	c-2.9-21.2-2.9-42.7,0-63.8C3.3,10.6,9.1,4.7,16.6,3.6c33-4.9,66.6-4.9,99.6,0c7.4,1,13.3,6.9,14.4,14.3c3.3,21.2,3.4,42.8,0.2,64.1
	c-1.1,7.5-7.1,13.3-14.6,14.2c-5.8,0.7-11.8,1.2-18.4,1.7l10.2,36c0,0.2,0.1,0.3,0.1,0.5C108.1,135.6,107.2,136.5,106.2,136.5
	L106.2,136.5z M17.1,7.4C11.3,8.2,6.7,12.8,6,18.6c-2.8,20.8-2.8,42,0,62.8c0.7,5.8,5.3,10.4,11.1,11.2c18.4,2.3,37,3.2,55.5,2.8
	c0.6,0,1.1,0.2,1.5,0.6l28.1,31.2l-8.6-30.4c-0.2-0.6-0.1-1.1,0.3-1.6c0.3-0.5,0.8-0.8,1.4-0.8c7.4-0.5,14.2-1.1,20.6-1.9
	c5.8-0.7,10.4-5.2,11.2-11c3.1-20.9,3-42.1-0.2-63c-0.8-5.8-5.4-10.3-11.2-11.1C99.3,5,82.9,3.8,66.4,3.8C49.9,3.8,33.4,5,17.1,7.4z
	"/>
<path class="st2" d="M211.3,283.7c-66.5,0-123.1,100-145.2,210.2h290.5C334.4,383.7,277.7,283.7,211.3,283.7L211.3,283.7z"/>
<path class="st1" d="M66,495.9c-0.1,0-0.3,0-0.4,0c-1-0.2-1.7-1.2-1.5-2.2c0,0,0,0,0,0c11.3-56.6,31.3-108.8,56.2-147.1
	c27.5-42.3,58.9-64.6,90.9-64.6s63.3,22.4,90.9,64.6c24.9,38.3,44.9,90.6,56.2,147.1c0.2,1-0.5,2-1.5,2.2c-1,0.2-2-0.5-2.2-1.5
	c-28.7-143.4-94.5-208.7-143.4-208.7S96.6,350.9,67.9,494.3C67.7,495.2,66.9,495.9,66,495.9L66,495.9z"/>
<path class="st2" d="M288.2,335.3c41.7-35.7,44-88.6,0.8-137.3c-1.8-14.4-12.5-88.8-34.7-98.4c-18.3-7.9-43.8,29.7-55.5,49.4
	c-15.7-2-31.6-0.9-46.9,3.2c-15.2,4.5-29.3,11.9-41.7,21.8c-20.4-10.7-61.7-29.4-73.2-13.1c-13.9,19.8,16,88.9,21.9,102.1
	c-10.1,56.9,12.2,97.9,55.1,112.4"/>
<path class="st1" d="M113.9,377.3c-0.2,0-0.4,0-0.6-0.1c-45.1-15.3-66.2-57.9-56.5-114c-8.9-19.9-35.5-83.5-21.5-103.4
	c11.9-17,51.3-0.1,74.5,11.9c12.3-9.7,26.4-17,41.5-21.4c15.1-4.1,30.8-5.3,46.4-3.4c13.5-22.4,38.3-57.4,57.3-49.1
	c22.4,9.7,32.9,77.7,35.8,99.4c22.3,25.3,33.1,52.5,31.4,78.7c-1.6,22.9-12.9,44-32.7,61c-0.8,0.7-2,0.6-2.7-0.2
	c-0.7-0.8-0.6-2,0.2-2.7c19-16.3,29.9-36.5,31.4-58.3c1.7-25.3-8.9-51.6-30.8-76.3c-0.3-0.3-0.4-0.6-0.5-1
	c-5.2-40.3-17.1-89.8-33.6-96.9c-17.3-7.5-42.9,31.5-53.1,48.7c-0.4,0.6-1.1,1-1.9,0.9c-15.4-1.9-31.1-0.8-46.1,3.2
	c-15,4.4-28.9,11.7-41.1,21.5c-0.6,0.5-1.4,0.5-2.1,0.2c-17.7-9.2-59.9-29.1-70.8-13.7c-10.3,14.7,5.4,63.1,22.1,100.2
	c0.2,0.3,0.2,0.7,0.1,1.1c-9.6,54.4,10.5,95.6,53.8,110.3c1,0.3,1.5,1.4,1.2,2.4C115.5,376.8,114.7,377.3,113.9,377.3L113.9,377.3z"
	/>
<path class="st3" d="M255.9,113.7c-15.3-6.6-41,41-41,41c20.3,5.2,41,17.8,62,34.7C276.9,189.5,271.2,120.4,255.9,113.7z"/>
<path class="st3" d="M42.9,173.9c9.6-13.6,55.8,13.4,55.8,13.4c-15.2,15.7-26.9,38.2-34.2,62.1C64.5,249.4,33.3,187.5,42.9,173.9z"
	/>
<ellipse transform="matrix(0.9623 -0.2721 0.2721 0.9623 -46.5621 75.048)" class="st1" cx="247.3" cy="205.4" rx="5" ry="6.6"/>
<ellipse transform="matrix(0.9623 -0.2721 0.2721 0.9623 -58.5971 47.5988)" class="st1" cx="142.3" cy="235.1" rx="5" ry="6.6"/>
<path class="st4" d="M196.5,263.2l7.1,5.9c2.5,2.1,6.3,1.7,8.3-0.8c0.5-0.6,0.8-1.2,1-1.9l3-8.7c1.1-3.1-0.6-6.5-3.7-7.5
	c-1.1-0.4-2.4-0.4-3.6-0.1l-10.1,2.8c-3.2,0.9-5,4.2-4.1,7.3C194.8,261.4,195.5,262.5,196.5,263.2L196.5,263.2z"/>
<g>
	<path class="st1" d="M207.3,272.4c-1.8,0-3.6-0.6-5-1.8l-7.1-5.9c-3.3-2.8-3.8-7.7-1-11c1-1.2,2.4-2.1,3.9-2.5l10.1-2.8
		c4.2-1.2,8.5,1.3,9.7,5.4c0.4,1.5,0.4,3.1-0.1,4.6l-3,8.7C213.6,270.3,210.7,272.4,207.3,272.4L207.3,272.4z M210.3,251.8
		c-0.4,0-0.8,0.1-1.1,0.2l-10.1,2.8c-2.1,0.6-3.4,2.8-2.8,5c0.2,0.8,0.7,1.5,1.3,2l7.1,5.9c1.7,1.4,4.2,1.2,5.7-0.5
		c0.3-0.4,0.6-0.8,0.7-1.3l3-8.7c0.7-2.1-0.4-4.4-2.5-5.1C211.2,251.9,210.8,251.8,210.3,251.8L210.3,251.8z"/>
	<path class="st1" d="M221.9,291.3c-1.6,0-3.3-0.3-4.8-0.9c-3.5-1.5-6-4.5-6.8-8.2c-0.3-1,0.4-2.1,1.4-2.3c1-0.2,2,0.3,2.3,1.3
		c0.5,2.5,2.2,4.6,4.5,5.7c6,2.4,15.3-3.1,15.4-3.2c0.9-0.5,2.1-0.2,2.6,0.7c0.5,0.9,0.2,2.1-0.7,2.6l0,0
		C231.7,289.5,226.9,291,221.9,291.3L221.9,291.3z"/>
	<path class="st1" d="M192.3,298.9c-1.1,0-1.9-0.8-1.9-1.9c0-1.1,0.8-1.9,1.9-1.9c3.6-0.1,13.7-1.3,17.2-6.1c1.4-2,1.7-4.5,0.9-6.7
		l-3.2-11.4c-0.3-1,0.3-2.1,1.3-2.4c1-0.3,2.1,0.3,2.4,1.3l3.2,11.4c1.2,3.4,0.6,7.1-1.5,10.1C207.1,298.5,192.9,298.9,192.3,298.9
		L192.3,298.9z"/>
	<path class="st1" d="M267.5,253.2c-1.1,0-1.9-0.9-1.9-1.9c0-0.7,0.4-1.4,1.1-1.7l77.3-37.2c0.9-0.5,2.1-0.2,2.6,0.8
		c0.5,0.9,0.2,2.1-0.8,2.6c-0.1,0-0.1,0.1-0.2,0.1L268.3,253C268.1,253.1,267.8,253.2,267.5,253.2L267.5,253.2z"/>
	<path class="st1" d="M273.1,272.9c-1.1,0.1-1.9-0.8-2-1.8c-0.1-1.1,0.8-1.9,1.8-2l85.3-8.7c1-0.1,2,0.7,2.1,1.7
		c0.1,1-0.7,2-1.7,2.1l-85.3,8.7C273.2,272.9,273.1,272.9,273.1,272.9L273.1,272.9z"/>
	<path class="st1" d="M270.4,263.6c-1.1,0-1.9-0.9-1.9-1.9c0-0.9,0.6-1.6,1.4-1.8l81.6-21.8c1-0.3,2.1,0.4,2.3,1.4
		c0.2,1-0.3,2-1.3,2.3l-81.6,21.8C270.8,263.6,270.6,263.6,270.4,263.6L270.4,263.6z"/>
	<path class="st1" d="M64.2,296.7c-1.1,0.1-1.9-0.8-2-1.8c-0.1-1.1,0.8-1.9,1.8-2l85.3-8.7c1-0.1,2,0.7,2.1,1.7c0.1,1-0.7,2-1.7,2.1
		c0,0,0,0,0,0l-85.3,8.7L64.2,296.7z"/>
	<path class="st1" d="M77.1,342.5c-1.1,0-1.9-0.8-1.9-1.9c0-0.7,0.4-1.4,1.1-1.7l77.3-37.2c0.9-0.5,2.1-0.1,2.6,0.8
		c0.5,0.9,0.1,2.1-0.8,2.6c0,0-0.1,0-0.1,0.1l-77.3,37.2C77.7,342.4,77.4,342.5,77.1,342.5L77.1,342.5z"/>
	<path class="st1" d="M71.4,322.2c-1.1,0-1.9-0.9-1.9-1.9c0-0.8,0.5-1.6,1.3-1.8l80.6-25.2c1-0.3,2.1,0.2,2.4,1.2
		c0.3,1-0.2,2.1-1.2,2.4L72,322.1C71.8,322.2,71.6,322.2,71.4,322.2L71.4,322.2z"/>
</g>
<g>
	<path class="st5" d="M63.1,28c-6.5,1-12,5-15,10.9c-4.9,9.9-0.9,22,9,26.9c3.9,1.9,6.8,5.2,8.2,9.2l15.2-4.2
		c-0.9-4.1-0.2-8.3,2.2-11.8c2.8-4.2,4-9.2,3.2-14.2C84.3,33.9,74,26.3,63.1,28L63.1,28z"/>
	<path class="st1" d="M65.9,76.8c-1,0.3-2-0.3-2.3-1.3c-1.2-3.6-3.9-6.5-7.3-8.1c-6.4-3.2-10.8-9.3-11.9-16.4
		c-1.8-12,6.4-23.2,18.4-25c5.5-0.8,11,0.4,15.6,3.5c10,6.8,12.7,20.4,5.9,30.5c-2,3-2.7,6.8-1.9,10.3c0.2,1-0.4,2-1.4,2.3
		L65.9,76.8L65.9,76.8z M81.1,58c2.6-3.8,3.6-8.4,2.9-12.9c-1.5-9.9-10.8-16.7-20.7-15.2c-5.8,0.9-10.9,4.6-13.5,9.8
		C45.4,48.7,49,59.6,58,64c3.8,1.8,6.8,4.9,8.5,8.7l11.9-3.3C77.9,65.4,78.9,61.3,81.1,58z"/>
	<path class="st6" d="M81.1,80.9L70,84l-2.6-9.5l11.1-3L81.1,80.9z"/>
	<path class="st1" d="M70.5,85.8c-1,0.3-2.1-0.3-2.3-1.4l-2.6-9.5c-0.3-1,0.3-2.1,1.3-2.3l11.1-3c1-0.3,2.1,0.3,2.3,1.3l2.6,9.5
		c0.3,1-0.3,2.1-1.3,2.3L70.5,85.8C70.5,85.8,70.5,85.8,70.5,85.8z M77.2,73.7l-7.4,2l1.6,5.9l7.4-2L77.2,73.7z"/>
	<path class="st1" d="M57.1,22l-1.3-4.7c-0.3-1,0.3-2.1,1.3-2.3c1-0.3,2.1,0.3,2.3,1.3l1.3,4.7c0.3,1-0.3,2.1-1.3,2.3
		C58.4,23.6,57.3,23,57.1,22z"/>
	<path class="st6" d="M44.9,30.1l-3.2-3.2"/>
	<path class="st1" d="M43.5,31.5l-3.2-3.2c-0.7-0.7-0.8-1.9,0-2.7c0.7-0.7,1.9-0.8,2.7,0l3.2,3.2c0,0,0,0,0,0c0.7,0.7,0.8,1.9,0,2.7
		c-0.2,0.2-0.5,0.4-0.9,0.5C44.7,32.1,44,32,43.5,31.5z"/>
	<path class="st6" d="M38.6,43.9l-4.8-0.7"/>
	<path class="st1" d="M38.3,45.8l-4.8-0.7c0,0-0.1,0-0.1,0c-1-0.2-1.7-1.2-1.5-2.2c0.2-1,1.2-1.7,2.2-1.5l4.8,0.7
		c0.7,0.1,1.3,0.6,1.5,1.4c0.3,1-0.3,2.1-1.3,2.3C38.8,45.8,38.5,45.8,38.3,45.8z"/>
	<path class="st6" d="M75.3,21.8l1.2-4.4"/>
	<path class="st1" d="M75.8,23.6c-0.3,0.1-0.7,0.1-1,0c-1-0.3-1.6-1.3-1.4-2.3l1.2-4.4c0.3-1,1.3-1.6,2.3-1.4c1,0.3,1.6,1.3,1.4,2.3
		l-1.2,4.4C77,22.9,76.5,23.5,75.8,23.6L75.8,23.6z"/>
	<path class="st6" d="M87.7,30.4l3.7-3.1"/>
	<path class="st1" d="M88.2,32.3c-0.7,0.2-1.5-0.1-2-0.6c-0.7-0.8-0.5-2,0.3-2.7l3.7-3.1c0.8-0.5,1.8-0.4,2.5,0.3
		c0.7,0.8,0.7,2-0.1,2.7l-3.7,3.1C88.7,32.1,88.5,32.2,88.2,32.3L88.2,32.3z"/>
</g>
<g>
	<path class="st7" d="M725.6,502.6c0,0-44.8-202.9-64.3-276.3s-95.1-82.1-119.3-79.2c-24.2,2.9-57.9,60.1-57.9,60.1l-79.3,24.1
		c-5.7,5.6-10.4,12.1-13.8,19.4c-5.9,12.3-8.6,25.8-7.9,39.4c1.6,38.2,93.6,36.9,93.6,36.9l-8.2,175.6"/>
	<path class="st8" d="M391.1,304.5l111.4,12.8L533,502.6h-64.6l8.2-175.6C476.7,327.1,413.9,331.2,391.1,304.5z"/>
	<path class="st9" d="M435,222.2l-30.2,9.2c-5.7,5.6-10.4,12.1-13.8,19.4c9.6,10,25.6,10.3,35.6,0.7c4.5-4.4,7.3-10.3,7.7-16.6
		L435,222.2z"/>
	<path class="st10" d="M769.2,87.4c-0.9-9.6-8.4-17.4-18-18.5c-23.2-2.7-45-2.8-70.5,0.2c-9.2,1.2-16.6,8.3-18,17.5
		c-3.3,18-3.4,36.5-0.3,54.5c1.6,8.4,8.1,15,16.5,16.7c4.3,0.8,8.5,1.5,12.8,2l-4.8,26.9l31.3-24.8c12.4,0.2,22-0.8,33.7-3.1
		c9.2-1.7,16.1-9.3,17-18.5C770.6,122.6,770.7,105,769.2,87.4L769.2,87.4z"/>
	<path class="st11" d="M468.3,504.6c-0.5,0-1-0.3-1.4-0.7c-0.4-0.4-0.5-0.9-0.5-1.4l8-171.4c0-0.5-0.2-1.1-0.5-1.5
		c-0.4-0.4-0.9-0.6-1.4-0.6c-15-0.2-89.9-3.1-91.4-38.8c-0.7-13.9,2.1-27.9,8.2-40.4c3.5-7.5,8.4-14.3,14.3-20.1
		c0.1-0.1,0.4-0.3,0.7-0.4l77.8-23.6c0.5-0.1,0.9-0.5,1.1-0.9c5.7-9.5,35.3-57,58.6-59.8c3-0.3,6.2-0.5,9.7-0.5
		c33.5,0,94.8,17.1,111.8,81.2c18.4,69.6,59.6,255.2,64.3,276.2l0,0.2c0.2,1.1-0.4,2.1-1.5,2.4l0,0c-0.1,0-0.3,0-0.4,0
		c-1,0-1.8-0.6-2-1.6c-0.4-2-45-203.7-64.3-276.2c-20.1-75.9-100.4-78.1-109.4-78.1c-2.9,0-5.6,0.1-7.7,0.4
		c-22.9,2.7-56,58.6-56.4,59.1c-0.3,0.4-0.7,0.8-1.1,0.9L406.3,233c-0.3,0.1-0.6,0.3-0.9,0.5c-5.2,5.3-9.4,11.4-12.6,18.1
		c-5.8,11.9-8.4,25.2-7.8,38.4c0.5,12.8,12.6,22.5,35.8,28.6c17.9,4.7,39.3,6.4,53.4,6.4c0.8,0,1.5,0,2.3,0c0.5,0,1.1,0.2,1.5,0.7
		c0.3,0.4,0.5,0.9,0.5,1.4l-8.2,175.6C470.4,503.8,469.5,504.6,468.3,504.6L468.3,504.6z"/>
	<path class="st11" d="M612.4,352.5c-7.8-0.2-15.3-3-21.2-8.1c-7.5-6.8-13.4-15.4-17.1-24.8c-10.2-23.3-6.2-42.3-0.8-61.4
		c0.8-2.8,1.6-5.6,2.5-8.5l0.2-0.7c1.7-5.8,3.5-11.8,5.1-18.2c0.2-0.9,1-1.6,2-1.6c0.2,0,0.3,0,0.5,0.1c1.1,0.3,1.7,1.3,1.5,2.4
		c-1.7,6.5-3.4,12.5-5.2,18.3l0,0.2c-0.9,3.2-1.8,6.2-2.7,9.1c-5.4,19-9.1,36.5,0.6,58.5c3.3,8.9,8.8,17,15.9,23.4
		c5.1,4.6,11.7,7.1,18.5,7.1c2.4,0,4.8-0.3,7.1-0.9c0,0,0.1,0,0.1,0c13.1-4.5,18.7-20.5,21.8-32.1c2.8-9.6,6.7-18.9,11.6-27.7
		c7.4-14.6,13.8-27.1,10.3-44.6c-0.1-0.5,0-1.1,0.3-1.5s0.7-0.8,1.3-0.9c0.1,0,0.3,0,0.4,0c0.9,0,1.8,0.7,2,1.6
		c3.8,18.9-3.2,32.6-10.6,47.2c-4.7,8.5-8.5,17.6-11.3,26.9c-3.4,12.6-9.5,29.8-24.4,34.9C618,352.1,615.3,352.5,612.4,352.5
		L612.4,352.5z"/>
	<path class="st11" d="M409.2,260.4c-0.6,0-1.1,0-1.7-0.1c-6.9-0.4-13.2-3.4-17.9-8.3c-0.6-0.6-0.7-1.5-0.4-2.3
		c3.5-7.5,8.4-14.3,14.3-20.1c0.1-0.1,0.4-0.3,0.7-0.4l30.2-9.2c0.2-0.1,0.4-0.1,0.6-0.1c0.9,0,1.7,0.6,1.9,1.4
		c0.1,0.2,0.1,0.5,0.1,0.7l-0.7,12.6C435.4,249.2,423.5,260.4,409.2,260.4z M430.7,225.6c-0.2,0-0.4,0-0.6,0.1l-23.8,7.2
		c-0.3,0.1-0.6,0.3-0.9,0.5c-4.5,4.6-8.2,9.8-11.2,15.4c-0.5,0.9-0.2,1.9,0.5,2.5c4.1,3.3,9.1,5,14.4,5c7.1,0,13.8-3.2,18.2-8.8
		c2.9-3.7,4.7-8.2,5-12.9l0.4-6.9c0-0.7-0.2-1.3-0.8-1.7C431.6,225.8,431.1,225.6,430.7,225.6z"/>
	<path class="st11" d="M408.4,291c-9.3,0-18.4-2.5-26.3-7.4c-0.4-0.3-0.7-0.7-0.9-1.2c-0.1-0.5,0-1.1,0.3-1.5c0.4-0.6,1-0.9,1.7-0.9
		c0.4,0,0.7,0.1,1.1,0.3c7.1,4.5,15.5,6.7,25.6,6.7c6.7,0,14.2-1,22.4-3c0.1,0,0.2,0,0.4,0c0.9,0,1.7,0.7,1.9,1.6
		c0.2,1-0.4,2.1-1.4,2.4c-7.6,2-15.5,3-23.4,3.1C409.3,291,408.8,291,408.4,291z"/>
	<path class="st11" d="M552.2,207.3c-0.3,0-0.5-0.1-0.8-0.1l-16.3-6.6c-0.4-0.2-0.8-0.6-1-1.1c-0.2-0.5-0.2-1,0-1.5
		c0.3-0.7,1-1.2,1.8-1.2c0.2,0,0.5,0,0.7,0.1l16.2,6.6c1,0.4,1.5,1.6,1.1,2.6C553.7,206.8,553,207.3,552.2,207.3L552.2,207.3z"/>
	<path class="st11" d="M686.9,188.4c-0.9,0-1.7-0.8-1.7-1.7c0-0.1,0-0.2,0-0.3l4.3-24c0.1-0.3,0-0.6-0.2-0.8
		c-0.2-0.2-0.4-0.4-0.7-0.4c-3.7-0.5-6.9-1.1-10-1.6c-9.1-1.8-16.2-8.9-17.9-18c-3.2-18.3-3.1-36.8,0.3-55.1
		c1.6-10,9.5-17.6,19.5-18.9c5.9-0.7,21-1.2,38.6-1.2c15.1,0,27.5,0.4,32.3,0.9c10.3,1.3,18.5,9.7,19.5,20.1
		c1.5,17.6,1.4,35.5-0.3,53.1c-1,10.1-8.4,18.1-18.4,20.1c-11.2,2.2-17.5,3.1-31,3.1c-0.7,0-1.4,0-2,0c-0.3,0-0.5,0.1-0.7,0.2
		L688,188C687.7,188.2,687.3,188.4,686.9,188.4L686.9,188.4z M718.8,69.6c-15.7,0-30.2,0.5-37.9,1.2c-8.5,1.1-15.2,7.6-16.6,16.1
		c-3.3,17.8-3.4,36-0.3,53.9c1.5,7.8,7.4,13.8,15.2,15.3c3.8,0.7,7.8,1.4,12.7,2c0.5,0.1,0.8,0.3,1.1,0.7c0.3,0.4,0.4,0.8,0.3,1.3
		c-1.5,7.9-3.9,20.5-3.9,22.6c2.2-1.3,17.5-13.7,27.7-22.1c0.3-0.2,0.7-0.4,1-0.4c1.1,0,2.2,0,3.6,0c14.2,0,18.6-0.9,27.6-2.7
		l2.2-0.4c8.4-1.6,14.7-8.5,15.6-17c1.7-17.4,1.8-35.1,0.3-52.5c-0.8-8.8-7.8-15.9-16.5-17C744.6,69.9,732.6,69.6,718.8,69.6z"/>
	<path class="st11" d="M714.1,134.4c-0.2,0-0.4,0-0.6-0.1c-0.5-0.2-0.8-0.5-1-0.9s-0.3-0.9-0.1-1.4c0.7-2.1,1-4,1.2-5.6
		c0.6-4.2,1.1-7.7,7.4-11.1c5-2.7,12.7-9.2,13.3-15.8c0.3-3.1-1.2-6-4.4-8.5c-4.1-3.2-8.7-3.9-11.8-3.9c-4.3,0-8.5,1.3-11.6,3.4
		c-2.6,1.8-6.5,5.8-4.3,12.3c0.3,0.9-0.2,2-1.1,2.3c-0.2,0.1-0.4,0.1-0.6,0.1c-0.8,0-1.5-0.5-1.7-1.2c-2.1-6.4-0.1-12.3,5.7-16.3
		c3.7-2.6,8.7-4.1,13.7-4.1c3.7,0,9.2,0.8,14.1,4.7c4.2,3.3,6.1,7.2,5.7,11.6c-0.7,8.6-10.2,16-15.1,18.6c-4.7,2.5-5,4.7-5.5,8.5
		c-0.3,1.8-0.6,3.8-1.3,6.2C715.5,133.9,714.8,134.4,714.1,134.4z"/>
	<path class="st11" d="M712.7,147.3c-0.1,0-0.3,0-0.4,0c-0.8-0.1-1.7-0.8-1.5-2.8c0.3-2.5,1.3-3.9,2.8-3.9c0.6,0,1.1,0.3,1.5,0.7
		c0.3,0.4,0.4,1,0.3,1.6l-0.7,2.4C714.2,147,713.3,147.3,712.7,147.3z"/>
</g>
</svg>
