<?xml version="1.0" encoding="utf-8"?>
<!-- Generator: Adobe Illustrator 28.1.0, SVG Export Plug-In . SVG Version: 6.00 Build 0)  -->
<svg version="1.1" id="圖層_1" xmlns="http://www.w3.org/2000/svg" xmlns:xlink="http://www.w3.org/1999/xlink" x="0px" y="0px"
	 viewBox="0 0 32 32" style="enable-background:new 0 0 32 32;" xml:space="preserve">
<style type="text/css">
	.st0{fill-rule:evenodd;clip-rule:evenodd;fill:#663333;}
	.st1{fill-rule:evenodd;clip-rule:evenodd;fill:#FFFFFF;}
	.st2{fill-rule:evenodd;clip-rule:evenodd;fill:#FAD49D;}
	.st3{fill-rule:evenodd;clip-rule:evenodd;fill:#FF6566;}
	.st4{fill-rule:evenodd;clip-rule:evenodd;fill:#BEB0B0;}
</style>
<g id="Guides_For_Artboard">
</g>
<g id="Layer_1">
</g>
<g id="Layer_2">
</g>
<g id="Layer_3">
</g>
<g id="Layer_4">
</g>
<g id="Layer_5">
	<g>
		<path class="st0" d="M30.13,17.77c0.48,0.07,0.9,0.15,1.24,0.43c0.59,0.49,0.67,1.42,0.61,2.12c-0.04,0.44-0.15,0.92-0.34,1.4
			c-0.21,0.54-0.53,1.09-0.96,1.58c-0.17,0.19-0.35,0.37-0.55,0.54v0.55c0,0.03,0,0.05,0,0.08v1.61v0.94v3
			c0,0.58-0.19,1.06-0.53,1.42C29.25,31.81,28.77,32,28.2,32H2.01c-0.55,0-1.05-0.22-1.42-0.59C0.23,31.05,0,30.54,0,29.98
			c0-5.82,0-11.53,0-17.29v-0.76v-1.18c0-0.5,0.11-1.04,0.41-1.57c0.21-0.36,0.5-0.71,0.91-1.01c0.05-0.04,0.11-0.08,0.17-0.12
			C1.5,8.04,1.51,8.02,1.53,8.01l0,0l5.08-3.24l6.44-4.11c0.66-0.42,1.12-0.67,2.01-0.66c0.61,0,1.22,0.16,1.74,0.48L28.12,7.7
			c0.13,0.08,0.29,0.18,0.41,0.27c0.46,0.33,0.83,0.78,1.1,1.28c0.32,0.58,0.5,1.23,0.5,1.87v4.99
			C30.13,16.11,30.13,17.77,30.13,17.77z"/>
		<path class="st1" d="M4.05,18.39l10.02,2.75v1.01l0.02,1.68l0.01,1.04c0.01,0.95,0.03,1.87,0.03,2.63c0,0.28-0.23,0.51-0.5,0.51
			c-0.28,0-0.5-0.23-0.5-0.51c0-1.07-0.01-1.96-0.02-2.84l-1.74-0.37c-0.27-0.06-0.44-0.32-0.39-0.6c0.06-0.27,0.32-0.45,0.59-0.39
			l1.52,0.32l-0.01-1.39l-1.36,0.1c-0.28,0.02-0.52-0.19-0.54-0.47c-0.02-0.28,0.19-0.52,0.46-0.54l1.43-0.11
			c0-1.88,0.06-3.78,0.25-5.69c-0.29,0.24-0.63,0.51-0.87,0.72l-2.22,2.05c-0.15,0.15-0.39,0.19-0.59,0.09c0,0-1.4-0.76-2.8-0.71
			C5.44,17.71,4.06,18.39,4.05,18.39c-0.14,0.07-0.32,0.07-0.47-0.02L1.05,16.9v1.37v3.01l1.22,0.06c0.28,0.01,0.49,0.25,0.47,0.53
			c-0.01,0.28-0.25,0.49-0.53,0.48L1.05,22.3v1.25L2.1,23.3c0.27-0.06,0.54,0.11,0.6,0.38c0.06,0.27-0.1,0.54-0.37,0.61l-1.27,0.3
			v5.4c0,0.54,0.43,0.96,0.97,0.96H28.2c0.56,0,0.89-0.32,0.89-0.92v-3v-0.94v-1.61c-0.22,0.11-0.45,0.21-0.7,0.29
			c-0.72,0.24-1.58,0.42-2.48,0.51c-0.64,0.06-1.3,0.08-1.96,0.05c-0.59,0.07-0.93,0.35-1.35,0.69c-0.18,0.15-0.38,0.31-0.62,0.48
			c-0.51,0.36-1.34,0.52-2.02,0.42c-0.24-0.03-0.47-0.1-0.66-0.19c-0.22-0.11-0.41-0.26-0.55-0.46c-0.17-0.24-0.25-0.54-0.2-0.88
			c0.1-0.75,0.57-1.25,0.98-1.56c-0.28-0.29-0.5-0.63-0.63-1.01c-0.06-0.18-0.1-0.37-0.12-0.57c-0.03-0.28,0.18-0.52,0.45-0.55
			c0.28-0.03,0.52,0.18,0.55,0.45c0.01,0.12,0.04,0.24,0.07,0.35c0.13,0.39,0.42,0.71,0.81,0.97l0.05,0.03
			c0.35,0.22,0.77,0.39,1.25,0.52c0.6,0.17,1.27,0.26,1.97,0.3c0.02,0,0.04,0,0.06,0c0.61,0.03,1.23,0.01,1.83-0.05
			c0.82-0.08,1.6-0.24,2.25-0.46c0.25-0.09,0.48-0.19,0.69-0.3c0.98-0.53,1.59-1.36,1.91-2.17c0.31-0.81,0.35-1.58,0.19-2.05
			c-0.02-0.05-0.04-0.1-0.06-0.13c-0.22-0.41-1.57-0.37-2.73-0.34c-0.86,0.02-1.63,0.05-2.06-0.15c-0.77-0.35-0.88-1.21-1.02-2.26
			c-0.08-0.58-0.16-1.24-0.38-1.86c-0.46-1.29-1.1-1.72-1.25-1.8c-0.11-0.05-0.2-0.13-0.26-0.25l-1.26-2.6l-1.32,2.06
			c-0.09,0.14-0.25,0.24-0.44,0.23l-2.35-0.08c-0.17-0.01-0.34-0.1-0.43-0.27l-1.55-2.93c-1.41,4.13-1.67,8.21-1.68,12.25
			L4.05,18.39L4.05,18.39z M17.73,12.08L17.73,12.08L4.75,19.42c0.31,0,0.56,0.34,0.56,0.77c0,0.42-0.25,0.77-0.56,0.77
			s-0.56-0.34-0.56-0.77c0-0.42,0.25-0.77,0.56-0.77L17.73,12.08L17.73,12.08z M8.88,19.42L8.88,19.42c0.31,0,0.56,0.34,0.56,0.77
			c0,0.42-0.25,0.77-0.56,0.77s-0.56-0.34-0.56-0.77C8.31,19.77,8.56,19.42,8.88,19.42L8.88,19.42z M8.48,22.22L8.48,22.22
			c-0.01-0.13,0.03-0.25,0.1-0.34c0.08-0.1,0.2-0.17,0.33-0.18c0.26-0.02,0.49,0.17,0.52,0.44c0.01,0.08,0.01,0.16,0,0.24
			c-0.04,0.38-0.26,0.74-0.56,0.99c-0.18,0.15-0.4,0.26-0.63,0.32c-0.24,0.06-0.5,0.06-0.75-0.02c-0.22-0.07-0.44-0.2-0.62-0.4
			c-0.19,0.2-0.4,0.33-0.62,0.4C6,23.75,5.74,23.75,5.5,23.69c-0.23-0.06-0.45-0.17-0.63-0.32c-0.37-0.3-0.6-0.75-0.56-1.23
			c0.02-0.26,0.25-0.46,0.52-0.44c0.26,0.02,0.46,0.26,0.43,0.52c-0.01,0.14,0.08,0.29,0.21,0.4c0.08,0.06,0.16,0.11,0.26,0.13
			c0.08,0.02,0.17,0.02,0.25,0c0.16-0.05,0.32-0.21,0.44-0.52c0.04-0.14,0.14-0.27,0.29-0.32c0.05-0.02,0.11-0.03,0.16-0.03l0,0
			h0.01l0,0c0.05,0,0.11,0.01,0.16,0.03c0.15,0.06,0.25,0.18,0.29,0.32c0.13,0.32,0.28,0.47,0.44,0.52c0.08,0.03,0.17,0.02,0.25,0
			c0.09-0.02,0.18-0.07,0.26-0.13C8.41,22.51,8.49,22.36,8.48,22.22L8.48,22.22z M19.55,17.69L19.55,17.69
			c-0.31,0-0.56-0.34-0.56-0.77c0-0.42,0.25-0.77,0.56-0.77s0.56,0.34,0.56,0.77C20.12,17.34,19.87,17.69,19.55,17.69L19.55,17.69z
			 M22.76,16.92L22.76,16.92c0-0.42,0.25-0.77,0.56-0.77s0.56,0.34,0.56,0.77c0,0.42-0.25,0.77-0.56,0.77S22.76,17.34,22.76,16.92
			L22.76,16.92z M26.99,20.57L26.99,20.57c0-0.61,0.69-1.1,1.53-1.1c0.85,0,1.53,0.49,1.53,1.1s-0.69,1.1-1.53,1.1
			S26.99,21.18,26.99,20.57z"/>
		<path class="st2" d="M24.15,25.32c0.11,0.69,0.37,2.37,0.51,3.79c0.08,0.82,0.08,1.4,0.12,1.83h3.42c0.56,0,0.89-0.32,0.89-0.92
			v-3v-0.94v-1.61c-0.22,0.11-0.45,0.21-0.7,0.29c-0.72,0.24-1.58,0.42-2.48,0.51C25.34,25.32,24.74,25.34,24.15,25.32z"/>
		<g>
			<path class="st3" d="M13.51,14.03c0.31-2.16,0.83-4.35,1.69-6.55c0.1-0.26,0.39-0.39,0.65-0.29c0.13,0.05,0.22,0.15,0.27,0.26
				l1.93,3.63l1.78,0.06l1.65-2.57c0.15-0.23,0.46-0.3,0.69-0.15c0.08,0.05,0.14,0.12,0.18,0.2l1.58,3.27
				c0.34,0.22,1.11,0.86,1.62,2.28c0.25,0.71,0.35,1.44,0.43,2.07c0.1,0.75,0.18,1.35,0.44,1.47c0.22,0.1,0.89,0.08,1.62,0.06
				c0.34-0.01,0.69-0.02,1.03-0.02V11.1c0-0.91-0.51-1.88-1.31-2.39l0,0L16.25,1.38l0,0c-0.6-0.38-1.62-0.47-2.33-0.02h-0.01
				L2.09,8.9H2.08c-0.8,0.51-1.04,1.23-1.04,1.84v1.18v0.76v3.05l2.81,1.63c0.5-0.22,1.72-0.67,2.97-0.71
				c1.21-0.04,2.42,0.42,2.97,0.68l1.98-1.83l0.03-0.02L13.51,14.03L13.51,14.03L13.51,14.03z M22.36,8.63L22.36,8.63L22.36,8.63z"
				/>
		</g>
		<path class="st4" d="M4.05,18.39l2.88-0.72c-0.02,0.81-0.22,2.82-1.57,4.86c-0.08-0.09-0.12-0.2-0.12-0.31
			c0.02-0.27-0.17-0.5-0.43-0.52c-0.26-0.02-0.49,0.17-0.52,0.44C4.26,22.58,4.46,23,4.78,23.3c-0.97,1.1-2.41,1.62-3.73,1.86v-0.58
			l1.27-0.3c0.27-0.06,0.44-0.34,0.37-0.61c-0.06-0.27-0.33-0.44-0.6-0.38l-1.05,0.25V22.3l1.17,0.06c0.28,0.01,0.51-0.2,0.53-0.48
			c0.01-0.28-0.2-0.52-0.47-0.53l-1.22-0.06v-3.01V16.9l2.54,1.47C3.73,18.46,3.91,18.46,4.05,18.39c0,0,1.39-0.68,2.8-0.72h0.08
			L4.05,18.39L4.05,18.39z M4.75,19.42L4.75,19.42c-0.31,0-0.56,0.34-0.56,0.77c0,0.42,0.25,0.77,0.56,0.77s0.56-0.34,0.56-0.77
			C5.31,19.77,5.06,19.42,4.75,19.42z"/>
		<path class="st2" d="M13.68,30.94L13.62,28h0.01c0.28,0,0.5-0.23,0.5-0.51c0-0.76-0.01-1.68-0.03-2.63l-0.01-1.04l-0.02-1.68
			v-1.01c0.01-4.03,0.27-8.12,1.68-12.25l1.55,2.93c0.09,0.17,0.25,0.26,0.43,0.27l2.35,0.08c0.18,0.01,0.34-0.09,0.44-0.23
			l1.32-2.06l1.26,2.6c0.06,0.12,0.15,0.2,0.26,0.25c0.15,0.08,0.79,0.51,1.25,1.8c0.22,0.63,0.31,1.28,0.38,1.86
			c0.14,1.06,0.25,1.91,1.02,2.26c0.1,0.05,0.22,0.08,0.36,0.11c-0.14,0.16-0.37,0.36-0.71,0.43c-0.66,0.14-2.25,0.28-2.97-1.35
			c-0.73-1.63-0.84-3.68-1.17-3.78c-0.33-0.09-0.77,0.21-0.21,2.6c0.56,2.38,1.15,3.26,0.4,3.68c-0.75,0.42-3.02-1.35-3.65,0.38
			c-0.63,1.72-0.35,7.02,0,10.23H13.68L13.68,30.94z M17.73,12.08L17.73,12.08l1.82,5.61c0.31,0,0.56-0.34,0.56-0.77
			c0-0.42-0.25-0.77-0.56-0.77s-0.56,0.34-0.56,0.77c0,0.42,0.25,0.77,0.56,0.77L17.73,12.08L17.73,12.08z M22.76,16.92L22.76,16.92
			c0,0.42,0.25,0.77,0.56,0.77s0.56-0.34,0.56-0.77c0-0.42-0.25-0.77-0.56-0.77S22.76,16.5,22.76,16.92z"/>
		<path class="st1" d="M5.53,10.89c0.46,1.38,2.25,2.31,4.08,3.23c0.92-1.84,1.86-3.68,1.41-5.07C10.55,7.64,8.14,7.6,8.24,9.7
			C7.07,8.09,5.07,9.48,5.53,10.89z"/>
		<path class="st3" d="M20.39,24.46c-0.28,0.14-0.76,0.48-0.84,1.06c-0.01,0.08,0,0.13,0.03,0.17c0.03,0.05,0.09,0.09,0.17,0.13
			c0.1,0.05,0.23,0.08,0.37,0.1c0.46,0.06,0.99-0.03,1.31-0.25c0.21-0.14,0.39-0.3,0.57-0.44l0.17-0.14l-0.45-0.11l-0.39-0.12
			c-0.4,0.12-0.99,0.35-0.99,0.35l0.59-0.5C20.72,24.63,20.55,24.55,20.39,24.46z"/>
	</g>
</g>
</svg>
