<?xml version="1.0" encoding="utf-8"?>
<!-- Generator: Adobe Illustrator 28.1.0, SVG Export Plug-In . SVG Version: 6.00 Build 0)  -->
<svg version="1.1" id="圖層_1" xmlns="http://www.w3.org/2000/svg" xmlns:xlink="http://www.w3.org/1999/xlink" x="0px" y="0px"
	 viewBox="0 0 96 96" style="enable-background:new 0 0 96 96;" xml:space="preserve">
<style type="text/css">
	.st0{fill-rule:evenodd;clip-rule:evenodd;fill:#663333;}
	.st1{fill-rule:evenodd;clip-rule:evenodd;fill:#FFFFFF;}
	.st2{fill-rule:evenodd;clip-rule:evenodd;fill:#FAD49D;}
	.st3{fill-rule:evenodd;clip-rule:evenodd;fill:#FF6566;}
	.st4{fill-rule:evenodd;clip-rule:evenodd;fill:#BEB0B0;}
</style>
<g id="Guides_For_Artboard">
</g>
<g id="Layer_5">
	<g>
		<path class="st0" d="M90.4,53.32c1.43,0.21,2.71,0.44,3.72,1.28c1.77,1.47,2.02,4.25,1.82,6.35c-0.13,1.32-0.45,2.76-1.01,4.19
			c-0.63,1.62-1.58,3.26-2.88,4.74c-0.5,0.57-1.05,1.11-1.65,1.62v1.66c0.01,0.08,0.01,0.17,0.01,0.25v4.84v2.82v9
			c0,1.74-0.56,3.18-1.59,4.26C87.76,95.42,86.32,96,84.6,96H6.04c-1.66,0-3.16-0.67-4.26-1.75C0.68,93.14,0,91.63,0,89.94
			c0-17.46,0-34.59,0-51.87v-2.28v-3.55c0-1.48,0.33-3.13,1.22-4.71c0.62-1.09,1.5-2.14,2.71-3.05c0.16-0.12,0.33-0.23,0.5-0.35
			c0.05-0.04,0.11-0.08,0.17-0.11l0,0l15.23-9.72L39.16,1.98c1.97-1.25,3.35-2,6.04-1.98c1.82,0.01,3.65,0.49,5.21,1.45l33.95,21.66
			c0.39,0.25,0.86,0.53,1.24,0.81c1.39,0.99,2.5,2.35,3.31,3.83c0.96,1.74,1.49,3.71,1.49,5.61l-0.01,14.97v4.99H90.4z"/>
		<path class="st1" d="M12.15,55.18l30.06,8.24l0.01,3.05l0.05,5.02l0.04,3.1c0.04,2.84,0.07,5.61,0.07,7.89
			c0,0.84-0.68,1.52-1.51,1.52c-0.83,0-1.51-0.68-1.51-1.52c0-3.22-0.04-5.88-0.07-8.53l-5.22-1.1c-0.81-0.17-1.33-0.98-1.17-1.79
			c0.17-0.82,0.97-1.34,1.78-1.17l4.57,0.97l-0.04-4.15L35.12,67c-0.83,0.06-1.55-0.57-1.61-1.4c-0.06-0.84,0.56-1.56,1.39-1.63
			l4.3-0.33c0.01-5.65,0.18-11.33,0.76-17.07c-0.88,0.71-1.89,1.54-2.6,2.17l-6.66,6.14c-0.45,0.45-1.17,0.58-1.76,0.26
			c-0.01-0.01-4.21-2.27-8.4-2.14C16.32,53.14,12.17,55.17,12.15,55.18c-0.43,0.21-0.95,0.21-1.4-0.05l-7.61-4.42v4.12v9.02
			l3.67,0.19c0.83,0.04,1.47,0.76,1.42,1.59c-0.04,0.84-0.75,1.48-1.58,1.43l-3.52-0.18v3.74l3.14-0.75
			C7.1,69.69,7.9,70.2,8.1,71.02c0.19,0.82-0.31,1.63-1.13,1.82l-3.82,0.91v16.19c0,1.63,1.29,2.89,2.9,2.89h78.56
			c1.67,0,2.66-0.98,2.66-2.77v-9v-2.82V73.4c-0.66,0.33-1.36,0.63-2.11,0.88c-2.15,0.74-4.73,1.26-7.43,1.52
			c-1.92,0.19-3.91,0.25-5.87,0.15c-1.78,0.22-2.8,1.06-4.05,2.09c-0.55,0.45-1.14,0.93-1.87,1.45c-1.54,1.08-4.01,1.55-6.05,1.26
			c-0.71-0.1-1.4-0.29-1.99-0.58c-0.67-0.33-1.24-0.78-1.65-1.38c-0.51-0.73-0.74-1.62-0.6-2.66c0.31-2.25,1.7-3.75,2.95-4.68
			c-0.85-0.87-1.5-1.88-1.89-3.05c-0.18-0.54-0.3-1.11-0.36-1.72c-0.07-0.83,0.53-1.57,1.35-1.65c0.83-0.08,1.56,0.53,1.64,1.37
			c0.04,0.36,0.11,0.71,0.22,1.04c0.39,1.16,1.25,2.12,2.43,2.9l0.15,0.1c1.04,0.66,2.32,1.17,3.74,1.57c1.8,0.5,3.82,0.79,5.9,0.9
			c0.06,0,0.12,0.01,0.17,0.01c1.82,0.09,3.69,0.03,5.49-0.14c2.46-0.24,4.81-0.71,6.76-1.38c0.75-0.26,1.44-0.56,2.07-0.9
			c2.94-1.59,4.77-4.06,5.73-6.52c0.94-2.42,1.06-4.75,0.59-6.17c-0.05-0.15-0.11-0.29-0.17-0.41c-0.66-1.23-4.7-1.12-8.18-1.01
			c-2.58,0.07-4.9,0.14-6.19-0.45c-2.3-1.06-2.65-3.62-3.06-6.79c-0.23-1.74-0.49-3.72-1.15-5.59c-1.37-3.87-3.3-5.15-3.75-5.4
			c-0.33-0.14-0.61-0.39-0.78-0.74l-3.78-7.8l-3.97,6.18c-0.28,0.43-0.76,0.7-1.31,0.69l-7.06-0.24c-0.52-0.02-1.01-0.3-1.27-0.8
			l-4.66-8.78c-4.24,12.4-5.01,24.65-5.05,36.75L12.15,55.18L12.15,55.18z M53.21,36.24L53.21,36.24L14.25,58.26
			c0.93,0,1.69,1.03,1.69,2.3s-0.76,2.3-1.69,2.3s-1.69-1.03-1.69-2.3s0.76-2.3,1.69-2.3L53.21,36.24L53.21,36.24z M26.63,58.26
			L26.63,58.26c0.93,0,1.69,1.03,1.69,2.3s-0.76,2.3-1.69,2.3s-1.69-1.03-1.69-2.3C24.94,59.3,25.7,58.26,26.63,58.26L26.63,58.26z
			 M25.45,66.65L25.45,66.65c-0.03-0.38,0.09-0.75,0.31-1.03c0.24-0.3,0.59-0.5,1-0.54c0.79-0.07,1.48,0.52,1.55,1.32
			c0.02,0.25,0.02,0.49-0.01,0.73c-0.13,1.15-0.77,2.22-1.67,2.96c-0.55,0.45-1.2,0.79-1.9,0.96c-0.73,0.18-1.5,0.18-2.26-0.06
			c-0.67-0.21-1.31-0.59-1.87-1.19c-0.57,0.6-1.21,0.98-1.87,1.19c-0.76,0.23-1.53,0.23-2.26,0.06c-0.7-0.17-1.35-0.51-1.9-0.96
			c-1.09-0.9-1.8-2.26-1.69-3.69c0.07-0.79,0.76-1.38,1.55-1.32c0.79,0.07,1.37,0.77,1.31,1.57c-0.04,0.42,0.23,0.87,0.63,1.2
			c0.23,0.19,0.5,0.33,0.77,0.39c0.25,0.06,0.5,0.06,0.75-0.02c0.48-0.15,0.95-0.62,1.33-1.57c0.12-0.43,0.43-0.81,0.88-0.97
			c0.16-0.06,0.32-0.09,0.48-0.09h0.01h0.03h0.01c0.16,0,0.32,0.03,0.48,0.09c0.45,0.17,0.76,0.54,0.88,0.97
			c0.37,0.95,0.85,1.42,1.33,1.57c0.25,0.07,0.5,0.07,0.75,0.02c0.27-0.07,0.54-0.21,0.77-0.39C25.22,67.52,25.48,67.08,25.45,66.65
			L25.45,66.65z M58.67,53.06L58.67,53.06c-0.93,0-1.69-1.03-1.69-2.3s0.76-2.3,1.69-2.3s1.69,1.03,1.69,2.3
			C60.36,52.04,59.6,53.06,58.67,53.06L58.67,53.06z M68.28,50.76L68.28,50.76c0-1.27,0.76-2.3,1.69-2.3c0.93,0,1.69,1.03,1.69,2.3
			s-0.76,2.3-1.69,2.3C69.04,53.06,68.28,52.04,68.28,50.76L68.28,50.76z M80.98,61.72L80.98,61.72c0-1.82,2.05-3.3,4.59-3.3
			c2.53,0,4.59,1.48,4.59,3.3s-2.05,3.3-4.59,3.3C83.03,65.02,80.98,63.54,80.98,61.72z"/>
		<path class="st2" d="M72.47,75.97c0.33,2.06,1.1,7.13,1.53,11.37c0.25,2.46,0.23,4.2,0.35,5.48H84.6c1.67,0,2.66-0.98,2.66-2.77
			v-9v-2.82V73.4c-0.66,0.33-1.36,0.63-2.11,0.88c-2.15,0.74-4.73,1.26-7.43,1.52C76.01,75.97,74.23,76.03,72.47,75.97z"/>
		<g>
			<path class="st3" d="M40.53,42.09c0.93-6.49,2.5-13.04,5.08-19.66c0.3-0.78,1.17-1.16,1.95-0.86c0.38,0.15,0.66,0.44,0.82,0.78
				l5.79,10.9l5.35,0.18l4.95-7.71c0.45-0.7,1.38-0.9,2.08-0.44c0.24,0.15,0.42,0.37,0.53,0.6l4.75,9.81
				c1.01,0.66,3.34,2.57,4.85,6.85c0.76,2.14,1.05,4.31,1.3,6.22c0.29,2.25,0.53,4.06,1.32,4.42c0.67,0.31,2.66,0.25,4.86,0.19
				c1.01-0.03,2.06-0.06,3.1-0.05V33.35c0-2.73-1.52-5.63-3.95-7.17c-0.01,0-0.01-0.01-0.02-0.01L48.74,4.12
				c-0.01,0-0.01-0.01-0.01-0.01c-1.79-1.14-4.85-1.4-6.98-0.05l-0.02,0.01L6.27,26.7l-0.02,0.01c-2.38,1.53-3.11,3.69-3.11,5.53
				v3.55v2.28v9.15l8.44,4.9c1.51-0.65,5.15-2.02,8.9-2.14c3.64-0.11,7.25,1.27,8.92,2.03l5.95-5.49l0.08-0.07L40.53,42.09
				L40.53,42.09L40.53,42.09z M67.08,25.88L67.08,25.88L67.08,25.88z"/>
		</g>
		<path class="st4" d="M12.15,55.18L20.8,53c-0.06,2.43-0.66,8.47-4.72,14.57c-0.23-0.28-0.37-0.61-0.35-0.92
			c0.07-0.79-0.52-1.5-1.31-1.57c-0.79-0.07-1.48,0.52-1.55,1.32c-0.11,1.32,0.49,2.6,1.46,3.49c-2.92,3.3-7.23,4.87-11.19,5.58
			v-1.73l3.82-0.91c0.81-0.19,1.31-1.01,1.13-1.82c-0.19-0.82-1-1.32-1.81-1.14l-3.14,0.75v-3.74l3.52,0.18
			c0.83,0.04,1.54-0.6,1.58-1.43c0.04-0.84-0.6-1.55-1.42-1.59l-3.67-0.19v-9.02v-4.12l7.61,4.42
			C11.2,55.38,11.72,55.38,12.15,55.18c0.02-0.01,4.17-2.04,8.41-2.17L20.8,53L12.15,55.18L12.15,55.18z M14.25,58.26L14.25,58.26
			c-0.93,0-1.69,1.03-1.69,2.3s0.76,2.3,1.69,2.3s1.69-1.03,1.69-2.3C15.94,59.3,15.18,58.26,14.25,58.26z"/>
		<path class="st2" d="M41.05,92.83L40.87,84h0.03c0.83,0,1.51-0.68,1.51-1.52c0-2.28-0.04-5.05-0.07-7.89l-0.04-3.1l-0.05-5.02
			l-0.01-3.05c0.03-12.1,0.81-24.35,5.05-36.75l4.66,8.78c0.26,0.5,0.76,0.78,1.27,0.8l7.06,0.24c0.54,0.02,1.03-0.26,1.31-0.69
			l3.97-6.18l3.78,7.8c0.17,0.35,0.45,0.6,0.78,0.74c0.45,0.25,2.37,1.53,3.75,5.4c0.67,1.88,0.92,3.85,1.15,5.59
			c0.42,3.17,0.76,5.73,3.06,6.79c0.31,0.14,0.67,0.25,1.09,0.32c-0.42,0.5-1.1,1.07-2.13,1.29c-1.96,0.43-6.74,0.85-8.92-4.04
			s-2.53-11.05-3.51-11.33c-0.98-0.28-2.31,0.64-0.63,7.79c1.69,7.15,3.44,9.77,1.19,11.05c-2.25,1.27-9.06-4.04-10.95,1.13
			c-1.89,5.17-1.05,21.07,0,30.68L41.05,92.83L41.05,92.83z M53.21,36.24L53.21,36.24l5.46,16.82c0.93,0,1.69-1.03,1.69-2.3
			s-0.76-2.3-1.69-2.3s-1.69,1.03-1.69,2.3s0.76,2.3,1.69,2.3L53.21,36.24L53.21,36.24z M68.28,50.76L68.28,50.76
			c0,1.27,0.76,2.3,1.69,2.3c0.93,0,1.69-1.03,1.69-2.3s-0.76-2.3-1.69-2.3C69.04,48.46,68.28,49.49,68.28,50.76z"/>
		<path class="st1" d="M16.59,32.66c1.37,4.15,6.75,6.92,12.23,9.69c2.75-5.53,5.59-11.05,4.23-15.2c-1.39-4.23-8.65-4.35-8.34,1.95
			C21.2,24.28,15.19,28.43,16.59,32.66z"/>
		<path class="st3" d="M61.16,73.36c-0.83,0.43-2.29,1.43-2.53,3.18c-0.03,0.22,0,0.39,0.08,0.51c0.1,0.14,0.27,0.27,0.5,0.38
			c0.3,0.15,0.68,0.25,1.1,0.31c1.38,0.19,2.98-0.08,3.92-0.74c0.61-0.43,1.17-0.89,1.7-1.32l0.51-0.42l-1.34-0.33l-1.17-0.36
			c-1.21,0.37-2.98,1.05-2.98,1.05l1.77-1.5C62.16,73.89,61.64,73.64,61.16,73.36z"/>
	</g>
</g>
</svg>
