<?xml version="1.0" encoding="utf-8"?>
<!-- Generator: Adobe Illustrator 28.1.0, SVG Export Plug-In . SVG Version: 6.00 Build 0)  -->
<svg version="1.1" id="圖層_1" xmlns="http://www.w3.org/2000/svg" xmlns:xlink="http://www.w3.org/1999/xlink" x="0px" y="0px"
	 viewBox="0 0 16 16" style="enable-background:new 0 0 16 16;" xml:space="preserve">
<style type="text/css">
	.st0{fill-rule:evenodd;clip-rule:evenodd;fill:#663333;}
	.st1{fill-rule:evenodd;clip-rule:evenodd;fill:#FFFFFF;}
	.st2{fill-rule:evenodd;clip-rule:evenodd;fill:#FAD49D;}
	.st3{fill-rule:evenodd;clip-rule:evenodd;fill:#FF6566;}
	.st4{fill-rule:evenodd;clip-rule:evenodd;fill:#BEB0B0;}
</style>
<g id="Guides_For_Artboard">
</g>
<g id="Layer_1">
</g>
<g id="Layer_2">
</g>
<g id="Layer_3">
</g>
<g id="Layer_4">
</g>
<g id="Layer_5">
	<g>
		<path class="st0" d="M15.07,8.89c0.24,0.04,0.45,0.07,0.62,0.21c0.29,0.25,0.34,0.71,0.3,1.06c-0.02,0.22-0.08,0.46-0.17,0.7
			c-0.11,0.27-0.26,0.54-0.48,0.79c-0.08,0.09-0.17,0.19-0.28,0.27v0.28c0,0.01,0,0.03,0,0.04v0.81v0.47v1.5
			c0,0.29-0.09,0.53-0.27,0.71C14.63,15.9,14.39,16,14.1,16H1.01c-0.28,0-0.53-0.11-0.71-0.29C0.11,15.52,0,15.27,0,14.99
			c0-2.91,0-5.77,0-8.64V5.97v-0.6c0-0.25,0.05-0.52,0.2-0.78c0.1-0.18,0.25-0.36,0.45-0.51C0.68,4.06,0.7,4.04,0.73,4.02
			C0.74,4.01,0.75,4.01,0.76,4l0,0L3.3,2.38l3.22-2.06C6.86,0.12,7.09,0,7.54,0c0.3,0,0.61,0.08,0.87,0.24l5.66,3.61
			c0.07,0.04,0.14,0.09,0.21,0.13c0.23,0.17,0.42,0.39,0.55,0.64c0.16,0.29,0.25,0.62,0.25,0.93v2.49L15.07,8.89L15.07,8.89z"/>
		<path class="st1" d="M2.03,9.2l5.01,1.37v0.51l0.01,0.84l0.01,0.52c0.01,0.47,0.01,0.94,0.01,1.31c0,0.14-0.11,0.25-0.25,0.25
			s-0.25-0.11-0.25-0.25c0-0.54-0.01-0.98-0.01-1.42l-0.87-0.18c-0.14-0.03-0.22-0.16-0.19-0.3c0.03-0.14,0.16-0.22,0.3-0.2
			l0.76,0.16l-0.01-0.69l-0.68,0.05c-0.14,0.01-0.26-0.09-0.27-0.23c-0.01-0.14,0.09-0.26,0.23-0.27l0.72-0.06
			c0-0.94,0.03-1.89,0.13-2.84C6.52,7.88,6.35,8.02,6.23,8.13L5.12,9.15c-0.08,0.08-0.19,0.1-0.29,0.04c0,0-0.7-0.38-1.4-0.36
			C2.72,8.86,2.03,9.2,2.03,9.2C1.95,9.23,1.87,9.23,1.79,9.19L0.52,8.45v0.69v1.5l0.61,0.03c0.14,0.01,0.24,0.13,0.24,0.27
			c-0.01,0.14-0.12,0.25-0.26,0.24l-0.59-0.03v0.62l0.52-0.12c0.13-0.03,0.27,0.05,0.3,0.19c0.03,0.14-0.05,0.27-0.19,0.3
			l-0.64,0.15v2.7c0,0.27,0.21,0.48,0.48,0.48H14.1c0.28,0,0.44-0.16,0.44-0.46v-1.5v-0.47v-0.81c-0.11,0.06-0.23,0.1-0.35,0.15
			c-0.36,0.12-0.79,0.21-1.24,0.25c-0.32,0.03-0.65,0.04-0.98,0.03c-0.3,0.04-0.47,0.18-0.68,0.35c-0.09,0.07-0.19,0.16-0.31,0.24
			c-0.26,0.18-0.67,0.26-1.01,0.21c-0.12-0.02-0.23-0.05-0.33-0.1c-0.11-0.05-0.21-0.13-0.28-0.23c-0.08-0.12-0.12-0.27-0.1-0.44
			c0.05-0.37,0.28-0.63,0.49-0.78C9.61,11.76,9.5,11.6,9.43,11.4c-0.03-0.09-0.05-0.19-0.06-0.29c-0.01-0.14,0.09-0.26,0.23-0.27
			s0.26,0.09,0.27,0.23c0.01,0.06,0.02,0.12,0.04,0.17c0.06,0.19,0.21,0.35,0.41,0.48l0.03,0.02c0.17,0.11,0.39,0.2,0.62,0.26
			c0.3,0.08,0.64,0.13,0.98,0.15c0.01,0,0.02,0,0.03,0c0.3,0.01,0.61,0.01,0.92-0.02c0.41-0.04,0.8-0.12,1.13-0.23
			c0.13-0.04,0.24-0.09,0.35-0.15c0.49-0.26,0.79-0.68,0.95-1.09c0.16-0.4,0.18-0.79,0.1-1.03c-0.01-0.03-0.02-0.05-0.03-0.07
			c-0.11-0.21-0.78-0.19-1.36-0.17c-0.43,0.01-0.82,0.02-1.03-0.08c-0.38-0.18-0.44-0.6-0.51-1.13c-0.04-0.29-0.08-0.62-0.19-0.93
			c-0.23-0.65-0.55-0.86-0.62-0.9c-0.05-0.02-0.1-0.07-0.13-0.12l-0.63-1.3l-0.66,1.03c-0.05,0.07-0.13,0.12-0.22,0.11L8.87,6.04
			c-0.09,0-0.17-0.05-0.21-0.13L7.88,4.44c-0.71,2.07-0.84,4.11-0.84,6.12L2.03,9.2L2.03,9.2z M8.87,6.04L8.87,6.04l-6.5,3.67
			c0.16,0,0.28,0.17,0.28,0.38s-0.13,0.38-0.28,0.38c-0.16,0-0.28-0.17-0.28-0.38s0.13-0.38,0.28-0.38L8.87,6.04L8.87,6.04z
			 M4.44,9.71L4.44,9.71c0.16,0,0.28,0.17,0.28,0.38s-0.13,0.38-0.28,0.38c-0.16,0-0.28-0.17-0.28-0.38S4.28,9.71,4.44,9.71
			L4.44,9.71z M4.24,11.11L4.24,11.11c-0.01-0.06,0.01-0.12,0.05-0.17c0.04-0.05,0.1-0.08,0.17-0.09c0.13-0.01,0.25,0.09,0.26,0.22
			c0,0.04,0,0.08,0,0.12c-0.02,0.19-0.13,0.37-0.28,0.49c-0.09,0.07-0.2,0.13-0.32,0.16C4,11.87,3.87,11.87,3.74,11.83
			c-0.11-0.03-0.22-0.1-0.31-0.2c-0.09,0.1-0.2,0.16-0.31,0.2c-0.13,0.04-0.26,0.04-0.38,0.01c-0.12-0.03-0.23-0.09-0.32-0.16
			c-0.18-0.15-0.3-0.38-0.28-0.61c0.01-0.13,0.13-0.23,0.26-0.22c0.13,0.01,0.23,0.13,0.22,0.26c-0.01,0.07,0.04,0.15,0.1,0.2
			c0.04,0.03,0.08,0.05,0.13,0.07c0.04,0.01,0.08,0.01,0.12,0c0.08-0.03,0.16-0.1,0.22-0.26c0.02-0.07,0.07-0.13,0.15-0.16
			c0.03-0.01,0.05-0.01,0.08-0.02l0,0l0,0l0,0c0.03,0,0.05,0.01,0.08,0.02c0.07,0.03,0.13,0.09,0.15,0.16
			c0.06,0.16,0.14,0.24,0.22,0.26c0.04,0.01,0.08,0.01,0.12,0c0.05-0.01,0.09-0.03,0.13-0.07C4.2,11.25,4.25,11.18,4.24,11.11
			L4.24,11.11z M9.78,8.84L9.78,8.84c-0.16,0-0.28-0.17-0.28-0.38s0.13-0.38,0.28-0.38c0.16,0,0.28,0.17,0.28,0.38
			C10.06,8.67,9.93,8.84,9.78,8.84L9.78,8.84z M11.38,8.46L11.38,8.46c0-0.21,0.13-0.38,0.28-0.38c0.16,0,0.28,0.17,0.28,0.38
			s-0.13,0.38-0.28,0.38S11.38,8.67,11.38,8.46L11.38,8.46z M13.5,10.29L13.5,10.29c0-0.3,0.34-0.55,0.77-0.55
			c0.42,0,0.77,0.25,0.77,0.55s-0.34,0.55-0.77,0.55S13.5,10.59,13.5,10.29z"/>
		<path class="st2" d="M12.08,12.66c0.05,0.34,0.18,1.19,0.26,1.9c0.04,0.41,0.04,0.7,0.06,0.91h1.71c0.28,0,0.44-0.16,0.44-0.46
			v-1.5v-0.47v-0.81c-0.11,0.06-0.23,0.1-0.35,0.15c-0.36,0.12-0.79,0.21-1.24,0.25C12.67,12.66,12.37,12.67,12.08,12.66z"/>
		<g>
			<path class="st3" d="M6.76,7.02C6.91,5.93,7.17,4.84,7.6,3.74C7.65,3.61,7.8,3.55,7.92,3.6c0.06,0.02,0.11,0.07,0.14,0.13
				l0.96,1.82l0.89,0.03l0.83-1.29c0.08-0.12,0.23-0.15,0.35-0.07c0.04,0.03,0.07,0.06,0.09,0.1l0.79,1.63
				c0.17,0.11,0.56,0.43,0.81,1.14c0.13,0.36,0.17,0.72,0.22,1.04c0.05,0.37,0.09,0.68,0.22,0.74c0.11,0.05,0.44,0.04,0.81,0.03
				c0.17,0,0.34-0.01,0.52-0.01V5.56c0-0.45-0.25-0.94-0.66-1.2l0,0L8.12,0.69l0,0C7.82,0.5,7.31,0.45,6.96,0.68l0,0L1.05,4.45l0,0
				c-0.4,0.26-0.52,0.61-0.52,0.92v0.59v0.38v1.52l1.41,0.82C2.19,8.57,2.8,8.34,3.42,8.32c0.6-0.01,1.2,0.22,1.48,0.35l0.99-0.91
				L5.9,7.75L6.76,7.02L6.76,7.02L6.76,7.02z M11.18,4.31L11.18,4.31L11.18,4.31z"/>
		</g>
		<path class="st4" d="M2.03,9.2l1.44-0.36c-0.01,0.4-0.11,1.41-0.79,2.43c-0.04-0.05-0.06-0.1-0.06-0.15
			c0.01-0.13-0.09-0.25-0.22-0.26s-0.25,0.09-0.26,0.22c-0.02,0.22,0.08,0.43,0.24,0.58c-0.49,0.55-1.2,0.81-1.87,0.93V12.3
			l0.64-0.15c0.13-0.03,0.22-0.17,0.19-0.3c-0.03-0.14-0.17-0.22-0.3-0.19l-0.52,0.12v-0.62l0.59,0.03c0.14,0.01,0.26-0.1,0.26-0.24
			c0.01-0.14-0.1-0.26-0.24-0.27l-0.61-0.03v-1.5v-0.7l1.27,0.74C1.87,9.23,1.95,9.23,2.03,9.2c0,0,0.69-0.34,1.4-0.36h0.04
			L2.03,9.2L2.03,9.2z M2.37,9.71L2.37,9.71c-0.16,0-0.28,0.17-0.28,0.38s0.13,0.38,0.28,0.38c0.16,0,0.28-0.17,0.28-0.38
			C2.66,9.88,2.53,9.71,2.37,9.71z"/>
		<path class="st2" d="M6.84,15.47L6.81,14l0,0c0.14,0,0.25-0.11,0.25-0.25c0-0.38-0.01-0.84-0.01-1.31l-0.01-0.52l-0.01-0.84v-0.51
			c0.01-2.02,0.13-4.06,0.84-6.12l0.78,1.46C8.7,5.99,8.78,6.04,8.87,6.04l1.18,0.04c0.09,0,0.17-0.04,0.22-0.11l0.66-1.03l0.63,1.3
			c0.03,0.06,0.07,0.1,0.13,0.12c0.07,0.04,0.4,0.25,0.62,0.9c0.11,0.31,0.15,0.64,0.19,0.93c0.07,0.53,0.13,0.96,0.51,1.13
			c0.05,0.02,0.11,0.04,0.18,0.05c-0.07,0.08-0.18,0.18-0.35,0.21c-0.33,0.07-1.12,0.14-1.49-0.67c-0.36-0.81-0.42-1.84-0.59-1.89
			c-0.16-0.05-0.39,0.11-0.11,1.3c0.28,1.19,0.57,1.63,0.2,1.84s-1.51-0.67-1.83,0.19c-0.32,0.86-0.18,3.51,0,5.11H6.84V15.47z
			 M8.87,6.04L8.87,6.04l0.91,2.8c0.16,0,0.28-0.17,0.28-0.38S9.93,8.08,9.78,8.08c-0.16,0-0.28,0.17-0.28,0.38s0.13,0.38,0.28,0.38
			L8.87,6.04L8.87,6.04z M11.38,8.46L11.38,8.46c0,0.21,0.13,0.38,0.28,0.38c0.16,0,0.28-0.17,0.28-0.38s-0.13-0.38-0.28-0.38
			S11.38,8.25,11.38,8.46z"/>
		<path class="st1" d="M2.76,5.44C2.99,6.13,3.89,6.6,4.8,7.06c0.46-0.92,0.93-1.84,0.71-2.53C5.28,3.82,4.07,3.8,4.12,4.85
			C3.53,4.05,2.53,4.74,2.76,5.44z"/>
		<path class="st3" d="M10.19,12.23c-0.14,0.07-0.38,0.24-0.42,0.53c-0.01,0.04,0,0.07,0.01,0.08c0.02,0.02,0.05,0.04,0.08,0.06
			c0.05,0.02,0.11,0.04,0.18,0.05c0.23,0.03,0.5-0.01,0.65-0.12c0.1-0.07,0.2-0.15,0.28-0.22l0.09-0.07l-0.22-0.06l-0.2-0.06
			c-0.2,0.06-0.5,0.17-0.5,0.17l0.29-0.25C10.36,12.31,10.27,12.27,10.19,12.23z"/>
	</g>
</g>
</svg>
