<?xml version="1.0" encoding="utf-8"?>
<!-- Generator: Adobe Illustrator 28.1.0, SVG Export Plug-In . SVG Version: 6.00 Build 0)  -->
<svg version="1.1" id="圖層_1" xmlns="http://www.w3.org/2000/svg" xmlns:xlink="http://www.w3.org/1999/xlink" x="0px" y="0px"
	 viewBox="0 0 180 180" style="enable-background:new 0 0 180 180;" xml:space="preserve">
<style type="text/css">
	.st0{fill-rule:evenodd;clip-rule:evenodd;fill:#663333;}
	.st1{fill-rule:evenodd;clip-rule:evenodd;fill:#FFFFFF;}
	.st2{fill-rule:evenodd;clip-rule:evenodd;fill:#FAD49D;}
	.st3{fill-rule:evenodd;clip-rule:evenodd;fill:#FF6566;}
	.st4{fill-rule:evenodd;clip-rule:evenodd;fill:#BEB0B0;}
</style>
<g id="Guides_For_Artboard">
</g>
<g id="Layer_1">
</g>
<g id="Layer_2">
</g>
<g id="Layer_3">
</g>
<g id="Layer_4">
</g>
<g id="Layer_5">
	<g>
		<path class="st0" d="M169.5,99.96c2.68,0.39,5.09,0.82,6.98,2.4c3.31,2.76,3.78,7.97,3.41,11.9c-0.24,2.47-0.85,5.17-1.89,7.85
			c-1.19,3.04-2.96,6.11-5.4,8.89c-0.93,1.06-1.97,2.08-3.1,3.04v3.11c0.01,0.15,0.02,0.31,0.02,0.46v9.07v5.29v16.87
			c0,3.27-1.05,5.96-2.98,7.98c-2,2.08-4.69,3.17-7.91,3.17H11.33c-3.11,0-5.93-1.25-7.98-3.29C1.28,174.64,0,171.8,0,168.64
			c0-32.74,0-64.86,0-97.25v-4.27v-6.65c0-2.78,0.62-5.86,2.28-8.83c1.16-2.05,2.81-4.01,5.09-5.71c0.3-0.22,0.61-0.44,0.93-0.65
			c0.1-0.07,0.21-0.15,0.32-0.21l0,0L37.2,26.84L73.44,3.71C77.13,1.36,79.73-0.04,84.77,0c3.41,0.02,6.85,0.91,9.76,2.72
			l63.66,40.61c0.74,0.47,1.62,1,2.33,1.51c2.61,1.86,4.69,4.41,6.2,7.19c1.8,3.27,2.8,6.95,2.8,10.52l-0.02,28.06V99.96z"/>
		<path class="st1" d="M22.79,103.46l56.37,15.44l0.01,5.71l0.1,9.42l0.08,5.82c0.07,5.32,0.14,10.52,0.14,14.79
			c0,1.57-1.27,2.85-2.83,2.85c-1.56,0-2.83-1.27-2.83-2.85c0-6.03-0.07-11.03-0.14-15.99l-9.79-2.07c-1.52-0.32-2.5-1.83-2.19-3.36
			c0.32-1.54,1.81-2.52,3.33-2.2l8.56,1.81l-0.08-7.79l-7.67,0.59c-1.55,0.12-2.91-1.06-3.02-2.63c-0.12-1.57,1.05-2.93,2.6-3.05
			l8.07-0.62c0.02-10.59,0.33-21.25,1.43-32c-1.65,1.33-3.54,2.88-4.88,4.07l-12.48,11.51c-0.85,0.85-2.19,1.08-3.3,0.48
			c-0.02-0.01-7.89-4.26-15.75-4.02C30.6,99.64,22.81,103.45,22.79,103.46c-0.81,0.39-1.79,0.39-2.62-0.1L5.9,95.08v7.72v16.92
			l6.89,0.36c1.55,0.08,2.75,1.42,2.67,2.98c-0.08,1.57-1.4,2.77-2.96,2.69l-6.6-0.34v7.02l5.89-1.4c1.52-0.36,3.03,0.6,3.39,2.13
			c0.35,1.53-0.59,3.06-2.11,3.42l-7.17,1.7v30.36c0,3.05,2.41,5.42,5.44,5.42h147.3c3.13,0,4.99-1.83,4.99-5.2v-16.87v-5.29v-9.07
			c-1.24,0.62-2.55,1.18-3.95,1.65c-4.04,1.38-8.87,2.36-13.93,2.85c-3.6,0.35-7.33,0.46-11,0.29c-3.34,0.41-5.25,1.98-7.6,3.91
			c-1.03,0.84-2.13,1.74-3.51,2.72c-2.88,2.03-7.52,2.91-11.35,2.37c-1.34-0.19-2.62-0.55-3.73-1.09c-1.26-0.61-2.33-1.47-3.1-2.58
			c-0.95-1.37-1.39-3.03-1.12-4.98c0.59-4.21,3.19-7.04,5.54-8.78c-1.6-1.64-2.82-3.53-3.55-5.71c-0.34-1.01-0.57-2.09-0.68-3.22
			c-0.14-1.56,0.99-2.95,2.54-3.09c1.55-0.15,2.92,1,3.07,2.56c0.07,0.68,0.21,1.33,0.41,1.95c0.73,2.18,2.34,3.98,4.56,5.44
			l0.29,0.18c1.95,1.23,4.35,2.2,7.01,2.94c3.38,0.94,7.17,1.49,11.07,1.69c0.11,0,0.22,0.01,0.32,0.02
			c3.42,0.16,6.91,0.06,10.3-0.27c4.62-0.45,9.01-1.34,12.67-2.58c1.41-0.48,2.7-1.05,3.89-1.69c5.52-2.98,8.94-7.62,10.74-12.23
			c1.77-4.53,1.98-8.9,1.1-11.56c-0.1-0.29-0.2-0.55-0.32-0.76c-1.23-2.31-8.81-2.1-15.33-1.9c-4.83,0.14-9.18,0.26-11.6-0.84
			c-4.32-1.98-4.96-6.79-5.74-12.73c-0.43-3.27-0.92-6.97-2.16-10.49c-2.57-7.26-6.19-9.65-7.03-10.12
			c-0.62-0.26-1.15-0.73-1.46-1.38l-7.08-14.62l-7.44,11.58c-0.52,0.8-1.43,1.32-2.45,1.29L99.77,68c-0.97-0.03-1.9-0.57-2.39-1.5
			L88.63,50c-7.95,23.24-9.4,46.21-9.46,68.9L22.79,103.46L22.79,103.46z M99.76,67.96L99.76,67.96l-73.04,41.29
			c1.75,0,3.17,1.94,3.17,4.32s-1.42,4.32-3.17,4.32s-3.17-1.93-3.17-4.32s1.42-4.32,3.17-4.32L99.76,67.96L99.76,67.96z
			 M49.93,109.25L49.93,109.25c1.75,0,3.17,1.94,3.17,4.32s-1.42,4.32-3.17,4.32s-3.17-1.93-3.17-4.32
			C46.75,111.19,48.18,109.25,49.93,109.25L49.93,109.25z M47.71,124.98L47.71,124.98c-0.06-0.72,0.16-1.4,0.58-1.93
			c0.45-0.56,1.11-0.94,1.87-1.01c1.48-0.13,2.78,0.98,2.91,2.47c0.04,0.46,0.03,0.91-0.01,1.36c-0.24,2.16-1.44,4.16-3.14,5.55
			c-1.03,0.84-2.25,1.48-3.56,1.8c-1.36,0.33-2.81,0.33-4.23-0.11c-1.25-0.39-2.45-1.11-3.51-2.23c-1.06,1.12-2.26,1.84-3.51,2.23
			c-1.42,0.44-2.87,0.44-4.23,0.11c-1.31-0.32-2.53-0.96-3.56-1.8c-2.05-1.68-3.38-4.24-3.16-6.91c0.13-1.49,1.43-2.59,2.91-2.47
			c1.48,0.13,2.57,1.44,2.45,2.94c-0.07,0.79,0.43,1.63,1.18,2.25c0.43,0.35,0.93,0.61,1.44,0.74c0.46,0.11,0.94,0.12,1.4-0.03
			c0.9-0.28,1.79-1.17,2.5-2.95c0.22-0.81,0.81-1.51,1.65-1.82c0.3-0.11,0.6-0.17,0.9-0.17h0.02h0.05h0.02c0.3,0,0.6,0.06,0.9,0.17
			c0.84,0.32,1.43,1.01,1.65,1.82c0.7,1.78,1.6,2.67,2.5,2.95c0.46,0.14,0.94,0.14,1.4,0.03c0.51-0.13,1.01-0.39,1.44-0.74
			C47.28,126.61,47.78,125.77,47.71,124.98L47.71,124.98z M109.99,99.5L109.99,99.5c-1.75,0-3.17-1.93-3.17-4.32
			s1.42-4.32,3.17-4.32c1.75,0,3.17,1.93,3.17,4.32C113.17,97.56,111.75,99.5,109.99,99.5L109.99,99.5z M128.01,95.18L128.01,95.18
			c0-2.39,1.42-4.32,3.17-4.32c1.75,0,3.17,1.93,3.17,4.32s-1.42,4.32-3.17,4.32C129.43,99.5,128.01,97.56,128.01,95.18
			L128.01,95.18z M151.83,115.72L151.83,115.72c0-3.42,3.85-6.19,8.61-6.19c4.75,0,8.61,2.77,8.61,6.19c0,3.42-3.85,6.19-8.61,6.19
			C155.68,121.91,151.83,119.14,151.83,115.72z"/>
		<path class="st2" d="M135.87,142.45c0.61,3.87,2.06,13.36,2.87,21.32c0.47,4.61,0.44,7.87,0.66,10.28h19.23
			c3.13,0,4.99-1.83,4.99-5.2v-16.87v-5.29v-9.07c-1.24,0.62-2.55,1.18-3.95,1.65c-4.04,1.38-8.87,2.36-13.93,2.85
			C142.52,142.44,139.18,142.56,135.87,142.45z"/>
		<g>
			<path class="st3" d="M76,78.92c1.75-12.17,4.69-24.45,9.52-36.87c0.57-1.46,2.2-2.18,3.65-1.61c0.71,0.28,1.24,0.82,1.54,1.46
				l10.85,20.44l10.03,0.34l9.29-14.46c0.85-1.32,2.59-1.69,3.9-0.83c0.45,0.29,0.78,0.69,1,1.13l8.9,18.39
				c1.89,1.24,6.26,4.82,9.1,12.84c1.42,4.01,1.96,8.08,2.43,11.67c0.55,4.21,1,7.61,2.47,8.29c1.26,0.58,4.99,0.47,9.12,0.35
				c1.9-0.06,3.87-0.11,5.82-0.1V62.55c0-5.11-2.85-10.55-7.4-13.45c-0.01,0-0.02-0.01-0.03-0.02L91.4,7.74
				c-0.01,0-0.01-0.01-0.02-0.01c-3.36-2.14-9.1-2.62-13.08-0.1l-0.03,0.02l-66.5,42.42l-0.04,0.02C7.25,52.97,5.9,57.01,5.9,60.46
				v6.65v4.27v17.15l15.83,9.18c2.84-1.21,9.65-3.79,16.68-4.01c6.83-0.21,13.59,2.39,16.73,3.8L66.3,87.21l0.15-0.13L76,78.92
				L76,78.92L76,78.92z M125.78,48.53L125.78,48.53L125.78,48.53z"/>
		</g>
		<path class="st4" d="M22.79,103.46L39,99.38c-0.11,4.56-1.23,15.88-8.85,27.32c-0.44-0.53-0.7-1.14-0.65-1.72
			c0.13-1.49-0.97-2.81-2.45-2.94c-1.48-0.13-2.78,0.98-2.91,2.47c-0.21,2.48,0.92,4.87,2.74,6.54
			c-5.48,6.18-13.56,9.13-20.98,10.47v-3.24l7.17-1.7c1.52-0.36,2.46-1.89,2.11-3.42c-0.35-1.53-1.87-2.48-3.39-2.13l-5.89,1.4
			v-7.02l6.6,0.34c1.55,0.08,2.88-1.13,2.96-2.69c0.08-1.57-1.12-2.9-2.67-2.98l-6.89-0.36V102.8v-7.72l14.27,8.28
			C21,103.85,21.98,103.85,22.79,103.46c0.03-0.01,7.81-3.82,15.77-4.07L39,99.38L22.79,103.46L22.79,103.46z M26.72,109.25
			L26.72,109.25c-1.75,0-3.17,1.94-3.17,4.32s1.42,4.32,3.17,4.32s3.17-1.93,3.17-4.32C29.89,111.19,28.47,109.25,26.72,109.25z"/>
		<path class="st2" d="M76.96,174.05l-0.34-16.56h0.05c1.56,0,2.83-1.27,2.83-2.85c0-4.27-0.07-9.47-0.14-14.79l-0.08-5.82
			l-0.1-9.42l-0.01-5.71c0.06-22.69,1.52-45.66,9.46-68.9l8.74,16.46c0.49,0.93,1.42,1.47,2.39,1.5L113,68.41
			c1.02,0.03,1.93-0.49,2.45-1.29l7.44-11.58l7.08,14.62c0.31,0.65,0.84,1.13,1.46,1.38c0.84,0.47,4.45,2.86,7.03,10.12
			c1.25,3.52,1.73,7.22,2.16,10.49c0.78,5.95,1.42,10.75,5.74,12.73c0.58,0.26,1.26,0.46,2.04,0.6c-0.78,0.93-2.06,2-3.99,2.42
			c-3.68,0.8-12.64,1.59-16.72-7.57s-4.74-20.71-6.58-21.24s-4.34,1.2-1.18,14.6c3.16,13.41,6.45,18.32,2.24,20.71
			s-16.98-7.57-20.53,2.12s-1.97,39.51,0,57.52L76.96,174.05L76.96,174.05z M99.76,67.96L99.76,67.96L110,99.5
			c1.75,0,3.17-1.93,3.17-4.32s-1.42-4.32-3.17-4.32c-1.75,0-3.17,1.93-3.17,4.32s1.42,4.32,3.17,4.32L99.76,67.96L99.76,67.96z
			 M128.01,95.18L128.01,95.18c0,2.39,1.42,4.32,3.17,4.32c1.75,0,3.17-1.93,3.17-4.32s-1.42-4.32-3.17-4.32
			C129.43,90.86,128.01,92.79,128.01,95.18z"/>
		<path class="st1" d="M31.1,61.24c2.56,7.78,12.66,12.98,22.94,18.17c5.15-10.36,10.49-20.72,7.93-28.5
			c-2.61-7.93-16.21-8.16-15.64,3.65C39.75,45.52,28.49,53.31,31.1,61.24z"/>
		<path class="st3" d="M114.67,137.56c-1.55,0.81-4.3,2.68-4.75,5.97c-0.06,0.42,0,0.74,0.15,0.95c0.18,0.26,0.51,0.5,0.94,0.71
			c0.57,0.28,1.28,0.47,2.06,0.58c2.58,0.36,5.59-0.15,7.35-1.39c1.15-0.81,2.2-1.67,3.18-2.47l0.96-0.78l-2.51-0.62l-2.2-0.67
			c-2.26,0.69-5.59,1.96-5.59,1.96l3.31-2.82C116.55,138.54,115.58,138.07,114.67,137.56z"/>
	</g>
</g>
</svg>
