<?xml version="1.0" encoding="utf-8"?>
<!-- Generator: Adobe Illustrator 28.1.0, SVG Export Plug-In . SVG Version: 6.00 Build 0)  -->
<svg version="1.1" id="圖層_1" xmlns="http://www.w3.org/2000/svg" xmlns:xlink="http://www.w3.org/1999/xlink" x="0px" y="0px"
	 viewBox="0 0 192 192" style="enable-background:new 0 0 192 192;" xml:space="preserve">
<style type="text/css">
	.st0{fill-rule:evenodd;clip-rule:evenodd;fill:#663333;}
	.st1{fill-rule:evenodd;clip-rule:evenodd;fill:#FFFFFF;}
	.st2{fill-rule:evenodd;clip-rule:evenodd;fill:#FAD49D;}
	.st3{fill-rule:evenodd;clip-rule:evenodd;fill:#FF6566;}
	.st4{fill-rule:evenodd;clip-rule:evenodd;fill:#BEB0B0;}
</style>
<g id="Guides_For_Artboard">
</g>
<g id="Layer_1">
</g>
<g id="Layer_2">
</g>
<g id="Layer_3">
</g>
<g id="Layer_4">
</g>
<g id="Layer_5">
	<g>
		<path class="st0" d="M180.8,106.63c2.86,0.42,5.43,0.88,7.45,2.56c3.54,2.95,4.03,8.5,3.63,12.7c-0.25,2.64-0.9,5.51-2.02,8.37
			c-1.26,3.24-3.15,6.51-5.76,9.48c-1,1.14-2.1,2.22-3.31,3.24v3.32c0.01,0.16,0.02,0.33,0.02,0.49v9.67v5.65v18
			c0,3.49-1.12,6.36-3.18,8.51c-2.13,2.22-5.01,3.38-8.43,3.38H12.09c-3.31,0-6.32-1.33-8.52-3.51C1.36,186.28,0,183.25,0,179.88
			c0-34.92,0-69.19,0-103.73v-4.56V64.5c0-2.97,0.66-6.25,2.44-9.42c1.23-2.19,3-4.28,5.43-6.09c0.32-0.24,0.65-0.47,0.99-0.69
			c0.11-0.08,0.23-0.16,0.34-0.23h0.01l30.47-19.44L78.33,3.96c3.94-2.51,6.71-4,12.09-3.96c3.64,0.03,7.31,0.97,10.41,2.9
			l67.9,43.32c0.79,0.51,1.73,1.06,2.49,1.61c2.79,1.99,5,4.71,6.62,7.66c1.92,3.49,2.99,7.41,2.99,11.22l-0.02,29.93v9.99H180.8z"
			/>
		<path class="st1" d="M24.31,110.35l60.13,16.47l0.01,6.09l0.11,10.05l0.09,6.21c0.08,5.68,0.15,11.22,0.15,15.78
			c0,1.68-1.35,3.04-3.02,3.04c-1.66,0-3.01-1.36-3.01-3.04c0-6.43-0.07-11.77-0.15-17.05l-10.44-2.21
			c-1.62-0.34-2.67-1.95-2.33-3.59c0.34-1.64,1.93-2.69,3.55-2.35l9.13,1.93l-0.09-8.31L70.27,134c-1.66,0.12-3.1-1.13-3.22-2.8
			c-0.12-1.67,1.12-3.13,2.78-3.25l8.61-0.66c0.02-11.3,0.35-22.67,1.53-34.13c-1.76,1.42-3.77,3.07-5.2,4.34l-13.31,12.28
			c-0.91,0.9-2.33,1.15-3.52,0.52c-0.03-0.01-8.42-4.54-16.8-4.28C32.63,106.28,24.34,110.35,24.31,110.35
			c-0.86,0.42-1.9,0.42-2.8-0.1l-15.22-8.83v8.23v18.05l7.35,0.38c1.66,0.09,2.93,1.51,2.85,3.18c-0.08,1.67-1.5,2.96-3.16,2.87
			l-7.04-0.37v7.49l6.28-1.49c1.62-0.38,3.24,0.64,3.61,2.27c0.38,1.63-0.63,3.26-2.25,3.65l-7.65,1.81v32.38
			c0,3.25,2.57,5.78,5.8,5.78H169.2c3.34,0,5.33-1.95,5.33-5.54v-18v-5.65v-9.67c-1.32,0.66-2.72,1.25-4.21,1.76
			c-4.31,1.47-9.46,2.51-14.85,3.04c-3.84,0.37-7.82,0.49-11.73,0.31c-3.57,0.44-5.6,2.11-8.11,4.17c-1.1,0.9-2.27,1.86-3.75,2.9
			c-3.07,2.16-8.03,3.11-12.1,2.53c-1.43-0.2-2.79-0.59-3.98-1.16c-1.34-0.65-2.49-1.56-3.31-2.75c-1.01-1.46-1.49-3.23-1.2-5.31
			c0.62-4.49,3.4-7.51,5.91-9.37c-1.71-1.75-3.01-3.77-3.78-6.09c-0.36-1.08-0.61-2.23-0.72-3.43c-0.15-1.67,1.06-3.14,2.71-3.3
			c1.65-0.16,3.12,1.07,3.27,2.73c0.07,0.73,0.22,1.42,0.44,2.08c0.78,2.32,2.5,4.25,4.86,5.8l0.31,0.2
			c2.08,1.31,4.64,2.35,7.48,3.14c3.61,1,7.65,1.58,11.81,1.8c0.11,0,0.23,0.01,0.35,0.02c3.64,0.17,7.37,0.06,10.99-0.29
			c4.93-0.48,9.61-1.43,13.51-2.76c1.5-0.51,2.88-1.12,4.15-1.8c5.88-3.18,9.53-8.13,11.45-13.05c1.89-4.83,2.12-9.5,1.17-12.33
			c-0.1-0.31-0.22-0.58-0.34-0.81c-1.31-2.47-9.4-2.24-16.36-2.03c-5.15,0.15-9.79,0.28-12.37-0.9c-4.61-2.11-5.29-7.24-6.12-13.58
			c-0.46-3.49-0.98-7.43-2.31-11.19c-2.75-7.75-6.6-10.29-7.5-10.8c-0.66-0.27-1.22-0.78-1.56-1.48l-7.55-15.59l-7.94,12.35
			c-0.55,0.86-1.52,1.41-2.61,1.38l-14.13-0.48c-1.04-0.03-2.03-0.61-2.55-1.6l-9.32-17.56c-8.48,24.79-10.03,49.29-10.1,73.49
			L24.31,110.35L24.31,110.35z M106.41,72.49L106.41,72.49L28.5,116.54c1.87,0,3.38,2.06,3.38,4.61c0,2.54-1.51,4.61-3.38,4.61
			s-3.38-2.06-3.38-4.61c0-2.55,1.52-4.61,3.38-4.61L106.41,72.49L106.41,72.49z M53.25,116.54L53.25,116.54
			c1.87,0,3.38,2.06,3.38,4.61c0,2.54-1.52,4.61-3.38,4.61c-1.87,0-3.38-2.06-3.38-4.61C49.87,118.6,51.39,116.54,53.25,116.54
			L53.25,116.54z M50.89,133.31L50.89,133.31c-0.06-0.77,0.17-1.5,0.62-2.06c0.48-0.6,1.18-1,1.99-1.08
			c1.58-0.14,2.97,1.04,3.1,2.63c0.04,0.49,0.04,0.98-0.02,1.45c-0.25,2.3-1.54,4.43-3.35,5.92c-1.09,0.9-2.4,1.57-3.8,1.92
			c-1.45,0.36-3,0.36-4.52-0.12c-1.33-0.42-2.62-1.19-3.75-2.38c-1.13,1.2-2.41,1.96-3.75,2.38c-1.51,0.47-3.06,0.47-4.51,0.12
			c-1.4-0.34-2.7-1.02-3.8-1.92c-2.19-1.79-3.61-4.53-3.37-7.37c0.14-1.59,1.53-2.77,3.11-2.63s2.75,1.54,2.61,3.13
			c-0.07,0.84,0.46,1.74,1.26,2.4c0.46,0.37,0.99,0.65,1.53,0.79c0.49,0.12,1.01,0.13,1.49-0.03c0.96-0.3,1.91-1.25,2.66-3.15
			c0.23-0.87,0.86-1.61,1.76-1.94c0.32-0.12,0.64-0.18,0.96-0.18h0.02h0.05h0.02c0.32,0,0.64,0.06,0.96,0.18
			c0.9,0.34,1.53,1.08,1.76,1.94c0.75,1.9,1.71,2.85,2.66,3.15c0.49,0.15,1,0.15,1.49,0.03c0.55-0.13,1.08-0.41,1.54-0.79
			C50.44,135.05,50.97,134.15,50.89,133.31L50.89,133.31z M117.33,106.13L117.33,106.13c-1.87,0-3.38-2.06-3.38-4.61
			s1.52-4.61,3.38-4.61c1.87,0,3.38,2.06,3.38,4.61S119.2,106.13,117.33,106.13L117.33,106.13z M136.55,101.52L136.55,101.52
			c0-2.55,1.51-4.61,3.38-4.61c1.87,0,3.38,2.06,3.38,4.61s-1.52,4.61-3.38,4.61C138.06,106.13,136.55,104.07,136.55,101.52
			L136.55,101.52z M161.95,123.43L161.95,123.43c0-3.64,4.11-6.6,9.18-6.6s9.18,2.95,9.18,6.6s-4.11,6.6-9.18,6.6
			C166.06,130.04,161.95,127.08,161.95,123.43z"/>
		<path class="st2" d="M144.93,151.95c0.65,4.13,2.19,14.25,3.06,22.74c0.5,4.91,0.47,8.39,0.7,10.96h20.51
			c3.34,0,5.33-1.95,5.33-5.54v-18v-5.65v-9.67c-1.32,0.66-2.72,1.25-4.21,1.76c-4.31,1.47-9.46,2.51-14.85,3.04
			C152.02,151.93,148.45,152.06,144.93,151.95z"/>
		<g>
			<path class="st3" d="M81.07,84.18c1.87-12.98,5-26.08,10.16-39.32c0.6-1.56,2.35-2.33,3.9-1.72c0.76,0.3,1.33,0.87,1.64,1.56
				l11.57,21.8l10.7,0.36l9.91-15.42c0.9-1.4,2.77-1.8,4.16-0.89c0.48,0.31,0.83,0.74,1.07,1.21l9.5,19.61
				c2.01,1.32,6.67,5.14,9.7,13.7c1.52,4.28,2.09,8.62,2.59,12.44c0.59,4.49,1.07,8.12,2.64,8.84c1.35,0.62,5.32,0.51,9.73,0.38
				c2.03-0.06,4.13-0.12,6.21-0.1V66.72c0-5.46-3.04-11.25-7.89-14.34c-0.01-0.01-0.02-0.01-0.03-0.02L97.49,8.26
				c-0.01,0-0.02-0.01-0.02-0.01c-3.58-2.28-9.71-2.79-13.96-0.1l-0.03,0.02L12.55,53.41l-0.04,0.03C7.74,56.5,6.29,60.81,6.29,64.5
				v7.09v4.56v18.29l16.88,9.8c3.03-1.29,10.29-4.04,17.8-4.27c7.29-0.23,14.49,2.55,17.84,4.06l11.9-10.98l0.16-0.13L81.07,84.18
				L81.07,84.18L81.07,84.18z M134.16,51.76L134.16,51.76L134.16,51.76z"/>
		</g>
		<path class="st4" d="M24.31,110.35L41.6,106c-0.12,4.86-1.31,16.94-9.44,29.14c-0.47-0.56-0.74-1.22-0.69-1.84
			c0.14-1.59-1.03-2.99-2.61-3.13s-2.97,1.04-3.11,2.63c-0.23,2.64,0.98,5.19,2.92,6.98c-5.84,6.59-14.46,9.73-22.38,11.17v-3.46
			l7.65-1.81c1.62-0.38,2.63-2.01,2.25-3.65c-0.38-1.63-1.99-2.65-3.61-2.27l-6.28,1.49v-7.49l7.04,0.37
			c1.66,0.08,3.07-1.2,3.16-2.87c0.08-1.67-1.19-3.1-2.85-3.18L6.3,127.7v-18.05v-8.23l15.22,8.83
			C22.4,110.77,23.45,110.77,24.31,110.35c0.03-0.01,8.33-4.07,16.83-4.34L41.6,106L24.31,110.35L24.31,110.35z M28.5,116.54
			L28.5,116.54c-1.87,0-3.38,2.06-3.38,4.61c0,2.54,1.52,4.61,3.38,4.61c1.87,0,3.38-2.06,3.38-4.61
			C31.88,118.6,30.37,116.54,28.5,116.54z"/>
		<path class="st2" d="M82.09,185.66L81.73,168h0.06c1.66,0,3.02-1.36,3.02-3.04c0-4.55-0.07-10.1-0.15-15.78l-0.09-6.21
			l-0.11-10.05l-0.01-6.09c0.06-24.2,1.62-48.7,10.1-73.49l9.32,17.56c0.52,0.99,1.51,1.57,2.55,1.6l14.13,0.48
			c1.09,0.03,2.06-0.52,2.61-1.38l7.94-12.35l7.55,15.59c0.33,0.7,0.9,1.2,1.56,1.48c0.9,0.5,4.75,3.05,7.5,10.8
			c1.33,3.76,1.85,7.7,2.31,11.19c0.83,6.35,1.51,11.47,6.12,13.58c0.62,0.28,1.35,0.49,2.18,0.64c-0.83,0.99-2.2,2.13-4.26,2.58
			c-3.93,0.85-13.48,1.7-17.83-8.07c-4.35-9.77-5.06-22.09-7.02-22.65c-1.97-0.57-4.63,1.27-1.26,15.57s6.88,19.54,2.39,22.09
			c-4.49,2.55-18.11-8.07-21.9,2.26c-3.79,10.34-2.11,42.15,0,61.35L82.09,185.66L82.09,185.66z M106.41,72.49L106.41,72.49
			l10.92,33.64c1.87,0,3.38-2.06,3.38-4.61s-1.51-4.61-3.38-4.61s-3.38,2.06-3.38,4.61s1.52,4.61,3.38,4.61L106.41,72.49
			L106.41,72.49z M136.55,101.52L136.55,101.52c0,2.55,1.51,4.61,3.38,4.61c1.87,0,3.38-2.06,3.38-4.61s-1.52-4.61-3.38-4.61
			C138.06,96.91,136.55,98.98,136.55,101.52z"/>
		<path class="st1" d="M33.17,65.32c2.73,8.3,13.5,13.84,24.47,19.39c5.5-11.05,11.19-22.1,8.46-30.4
			c-2.78-8.46-17.29-8.7-16.69,3.89C42.4,48.56,30.39,56.86,33.17,65.32z"/>
		<path class="st3" d="M122.31,146.73c-1.66,0.86-4.58,2.86-5.07,6.37c-0.06,0.45,0,0.78,0.16,1.01c0.19,0.28,0.54,0.53,1,0.75
			c0.61,0.3,1.37,0.5,2.19,0.62c2.75,0.39,5.97-0.16,7.84-1.48c1.23-0.87,2.35-1.78,3.39-2.64l1.03-0.84l-2.67-0.66l-2.34-0.72
			c-2.42,0.74-5.96,2.09-5.96,2.09l3.53-3C124.32,147.78,123.29,147.28,122.31,146.73z"/>
	</g>
</g>
</svg>
