<svg viewBox="-39 0 511 511.9997" xmlns="http://www.w3.org/2000/svg"><path d="m98.042969 482.296875c-5.421875 0-10.835938-2.136719-14.867188-6.378906-7.792969-8.210938-7.460937-21.183594.75-28.976563 12.648438-12.015625 18.933594-26.140625 26.890625-44.023437 5.371094-12.066407 11.457032-25.75 20.398438-40.5 5.867187-9.683594 18.46875-12.773438 28.148437-6.90625 9.683594 5.867187 12.773438 18.46875 6.910157 28.152343-7.601563 12.535157-12.890626 24.425782-18.003907 35.921876-9.027343 20.289062-17.558593 39.453124-36.117187 57.078124-3.960938 3.765626-9.039063 5.632813-14.109375 5.632813zm0 0" fill="#495059"/><g fill="#ddaf89"><path d="m164.0625 512c-13.660156 0-25.003906-10.777344-25.582031-24.550781-1.484375-35.535157.003906-56.992188 1.886719-84.160157l.050781-.78125c.980469-14.113281 13.222656-24.78125 27.332031-23.789062 14.117188.980469 24.765625 13.214844 23.789062 27.332031l-.054687.78125c-1.839844 26.578125-3.171875 45.785157-1.804687 78.472657.589843 14.140624-10.390626 26.078124-24.527344 26.671874-.367188.015626-.730469.023438-1.089844.023438zm0 0"/><path d="m269.082031 512c-.363281 0-.722656-.007812-1.089843-.023438-14.136719-.589843-25.121094-12.53125-24.527344-26.667968 1.367187-32.691406.035156-51.894532-1.804688-78.476563l-.054687-.78125c-.980469-14.117187 9.671875-26.351562 23.789062-27.332031 14.125-.992188 26.351563 9.675781 27.328125 23.789062l.054688.78125c1.882812 27.167969 3.371094 48.625 1.882812 84.160157-.574218 13.773437-11.921875 24.550781-25.578125 24.550781zm0 0"/><path d="m92.921875 444.214844c-14.152344 0-25.621094-11.46875-25.621094-25.621094 0-41.042969 6.226563-74.484375 20.191407-108.425781 5.382812-13.085938 20.355468-19.328125 33.441406-13.945313 13.085937 5.386719 19.328125 20.359375 13.945312 33.441406-11.296875 27.464844-16.335937 54.890626-16.335937 88.929688-.003907 14.152344-11.472657 25.621094-25.621094 25.621094zm0 0"/><path d="m340.222656 444.214844c-14.148437 0-25.621094-11.46875-25.621094-25.621094 0-34.039062-5.039062-61.464844-16.335937-88.929688-5.386719-13.085937.859375-28.058593 13.945313-33.441406 13.085937-5.386718 28.058593.859375 33.441406 13.945313 13.964844 33.941406 20.191406 67.382812 20.191406 108.425781 0 14.152344-11.46875 25.621094-25.621094 25.621094zm0 0"/></g><path d="m120.933594 296.222656c-13.085938-5.382812-28.058594.859375-33.441406 13.945313-3.40625 8.28125-6.34375 16.53125-8.855469 24.871093 4.042969 28.726563 18.621093 54.480469 40.0625 73.914063.886719-29.664063 5.96875-54.46875 16.179687-79.289063 5.382813-13.082031-.859375-28.054687-13.945312-33.441406zm0 0" fill="#d1a582"/><path d="m167.75 378.71875c-14.109375-.992188-26.351562 9.675781-27.332031 23.789062l-.050781.78125c-.503907 7.25-.976563 14.089844-1.375 20.902344 14.992187 9.246094 32.050781 15.886719 50.398437 19.222656.394531-12.074218 1.183594-23.425781 2.09375-36.582031l.054687-.78125c.980469-14.113281-9.671874-26.351562-23.789062-27.332031zm0 0" fill="#d1a582"/><path d="m292.777344 403.289062-.054688-.78125c-.976562-14.113281-13.203125-24.78125-27.328125-23.789062-14.117187.980469-24.765625 13.214844-23.789062 27.332031l.054687.78125c.910156 13.15625 1.695313 24.507813 2.09375 36.578125 18.34375-3.335937 35.40625-9.976562 50.398438-19.21875-.398438-6.8125-.871094-13.652344-1.375-20.902344zm0 0" fill="#d1a582"/><path d="m354.503906 335.039062c-2.507812-8.335937-5.445312-16.589843-8.851562-24.871093-5.386719-13.082031-20.359375-19.332031-33.445313-13.941407-13.085937 5.382813-19.328125 20.355469-13.945312 33.441407 10.210937 24.816406 15.296875 49.621093 16.183593 79.289062 21.441407-19.4375 36.015626-45.191406 40.058594-73.917969zm0 0" fill="#d1a582"/><path d="m341.472656 318.730469c0-62.382813-55.921875-112.953125-124.902344-112.953125-68.980468 0-124.898437 50.570312-124.898437 112.953125 0 62.382812 55.917969 112.953125 124.898437 112.953125 68.980469 0 124.902344-50.570313 124.902344-112.953125zm0 0" fill="#ddaf89"/><path d="m329.378906 246.207031c-30.609375 25.398438-69.925781 40.671875-112.808594 40.671875-42.882812 0-82.195312-15.273437-112.804687-40.671875-6.507813 8.429688-11.9375 17.605469-16.050781 27.375-5.605469 13.308594-.433594 28.734375 12.019531 36.046875 34.285156 20.125 74.210937 31.671875 116.835937 31.671875 42.628907 0 82.554688-11.546875 116.839844-31.671875 12.453125-7.3125 17.621094-22.738281 12.015625-36.046875-4.113281-9.769531-9.539062-18.945312-16.046875-27.375zm0 0" fill="#7f9ae6"/><path d="m159.6875 277.523438c-20.613281-7.003907-39.519531-17.703126-55.921875-31.316407-6.507813 8.429688-11.9375 17.605469-16.050781 27.375-5.605469 13.308594-.433594 28.734375 12.019531 36.046875 17.828125 10.460938 37.1875 18.582032 57.652344 23.992188-7.507813-15.070313-5.382813-37.6875 2.300781-56.097656zm0 0" fill="#738cd1"/><path d="m165.320312 91.449219c-5.554687 0-11.15625-1.691407-15.996093-5.203125l-33.53125-24.359375c-14.683594-10.667969-34.488281-9.777344-48.160157 2.15625l-21.957031 19.171875c-11.335937 9.898437-28.550781 8.730468-38.453125-2.605469-9.898437-11.339844-8.730468-28.554687 2.605469-38.453125l21.957031-19.171875c15.832032-13.824219 36.117188-21.953125 57.113282-22.8945312 21-.9374998 41.921874 5.3476562 58.929687 17.6992182l33.53125 24.355469c12.179687 8.847657 14.878906 25.890625 6.035156 38.066407-5.332031 7.339843-13.644531 11.238281-22.074219 11.238281zm0 0" fill="#495059"/><path d="m267.824219 91.449219c-8.429688 0-16.742188-3.894531-22.074219-11.238281-8.84375-12.175782-6.144531-29.21875 6.035156-38.066407l33.53125-24.355469c17.007813-12.351562 37.9375-18.632812 58.929688-17.6992182 20.996094.9414062 41.28125 9.0742182 57.113281 22.8945312l21.957031 19.171875c11.335938 9.898438 12.503906 27.117188 2.605469 38.453125-9.902344 11.339844-27.117187 12.503906-38.453125 2.605469l-21.957031-19.167969c-13.671875-11.9375-33.476563-12.824219-48.160157-2.15625l-33.53125 24.355469c-4.839843 3.511718-10.445312 5.203125-15.996093 5.203125zm0 0" fill="#495059"/><path d="m216.570312 307.300781c138.351563 0 200.703126-63.378906 181.242188-152.617187-20.910156-95.898438-86.777344-148.394532-181.242188-148.394532-94.460937 0-160.328124 52.496094-181.238281 148.394532-19.460937 89.242187 42.890625 152.617187 181.238281 152.617187zm0 0" fill="#ddaf89"/><path d="m251.460938 345.699219c0 19.269531-15.621094 34.886719-34.890626 34.886719-19.265624 0-34.886718-15.617188-34.886718-34.886719s15.621094-34.890625 34.886718-34.890625c19.269532 0 34.890626 15.621094 34.890626 34.890625zm0 0" fill="#f6e06a"/><path d="m133.074219 166.160156c-4.140625 0-7.5-3.359375-7.5-7.5v-10.335937c0-4.140625 3.359375-7.5 7.5-7.5s7.5 3.359375 7.5 7.5v10.335937c0 4.140625-3.359375 7.5-7.5 7.5zm0 0" fill="#495059"/><path d="m300.070312 166.160156c-4.144531 0-7.5-3.359375-7.5-7.5v-10.335937c0-4.140625 3.355469-7.5 7.5-7.5 4.140626 0 7.5 3.359375 7.5 7.5v10.335937c0 4.140625-3.359374 7.5-7.5 7.5zm0 0" fill="#495059"/><path d="m264.246094 250.273438c-10.367188-11.894532-24.710938-19.402344-40.175782-21.25v-29.351563c.457032-.167969.910157-.34375 1.355469-.542969l18.921875-8.414062c6.820313-3.035156 9.234375-11.503906 5.035156-17.675782-3.105468-4.574218-7.765624-7.863281-13.113281-9.261718-12.914062-3.378906-26.480469-3.378906-39.394531 0-5.347656 1.398437-10.007812 4.6875-13.117188 9.261718-4.195312 6.171876-1.785156 14.640626 5.039063 17.675782l18.921875 8.414062c.445312.199219.898438.375 1.355469.542969v29.351563c-15.464844 1.847656-29.808594 9.355468-40.175781 21.25-2.722657 3.125-2.394532 7.859374.726562 10.582031 3.121094 2.722656 7.859375 2.398437 10.582031-.726563 9.175781-10.53125 22.433594-16.570312 36.367188-16.570312 13.933593 0 27.1875 6.039062 36.367187 16.570312 1.480469 1.703125 3.5625 2.574219 5.65625 2.574219 1.746094 0 3.5-.609375 4.925782-1.847656 3.121093-2.71875 3.445312-7.457031.722656-10.582031zm0 0" fill="#495059"/></svg>