<svg viewBox="-96 0 512 512" xmlns="http://www.w3.org/2000/svg"><path d="m57.175781 470.910156c-1.121093 0-2.253906-.019531-3.402343-.058594-8.195313-.285156-14.605469-7.160156-14.320313-15.355468.289063-8.191406 7.144531-14.59375 15.355469-14.316406 15.035156.519531 27.707031-1.769532 42.226562-35.664063 3.226563-7.535156 11.949219-11.027344 19.488282-7.800781 7.535156 3.226562 11.027343 11.953125 7.800781 19.488281-16.234375 37.910156-35.851563 53.707031-67.148438 53.707031zm0 0" fill="#495059"/><path d="m117.527344 512c-9.597656 0-17.722656-7.390625-18.480469-17.117188-1.941406-24.953124-1.164063-43.578124 2.691406-64.292968 1.875-10.074219 11.558594-16.722656 21.636719-14.847656 10.074219 1.875 16.722656 11.5625 14.847656 21.640624-3.261718 17.527344-3.871094 32.84375-2.175781 54.621094.792969 10.21875-6.84375 19.144532-17.0625 19.9375-.488281.039063-.976563.058594-1.457031.058594zm0 0" fill="#ddaf89"/><path d="m202.078125 512c-.484375 0-.96875-.019531-1.457031-.058594-10.21875-.792968-17.855469-9.71875-17.0625-19.9375 1.695312-21.777344 1.085937-37.09375-2.175782-54.621094-1.875-10.078124 4.773438-19.765624 14.847657-21.640624 10.070312-1.871094 19.761719 4.773437 21.636719 14.847656 3.851562 20.714844 4.632812 39.339844 2.691406 64.292968-.757813 9.726563-8.886719 17.117188-18.480469 17.117188zm0 0" fill="#ddaf89"/><path d="m29.054688 430.714844c-2.859376 0-5.761719-.664063-8.480469-2.0625-9.109375-4.695313-12.691407-15.882813-8-24.992188 14.136719-27.445312 39.839843-45.839844 68.761719-49.203125 10.179687-1.1875 19.390624 6.109375 20.574218 16.285157 1.183594 10.179687-6.105468 19.394531-16.285156 20.578124-24.628906 2.863282-36.886719 23.175782-40.058594 29.332032-3.292968 6.390625-9.785156 10.0625-16.511718 10.0625zm0 0" fill="#ddaf89"/><path d="m236.625 394.707031c-10.199219 1.007813-19.285156-6.445312-20.289062-16.644531-1.007813-10.199219 6.445312-19.28125 16.644531-20.289062 15.1875-1.496094 27.136719-8.757813 29.726562-18.058594 2.746094-9.875 12.976563-15.652344 22.851563-12.902344 9.871094 2.75 15.648437 12.980469 12.898437 22.851562-6.769531 24.324219-31.042969 42.003907-61.832031 45.042969zm0 0" fill="#c49b7a"/><path d="m217.867188 430.589844c-1.875-10.074219-11.566407-16.71875-21.636719-14.847656-10.074219 1.875-16.722657 11.5625-14.847657 21.640624 1.71875 9.230469 2.691407 17.855469 2.992188 27.125 13.21875-2.949218 25.457031-8.226562 36.164062-15.332031-.613281-6.160156-1.5-12.273437-2.671874-18.585937zm0 0" fill="#d1a582"/><path d="m81.335938 354.457031c-8.59375 1-16.894532 3.335938-24.703126 6.832031-.433593 3.527344-.664062 7.109376-.664062 10.738282 0 10.339844 1.816406 20.292968 5.152344 29.617187 6.195312-4.9375 14.28125-9.136719 24.503906-10.324219 10.175781-1.183593 17.46875-10.394531 16.285156-20.578124-1.183594-10.175782-10.398437-17.472657-20.574218-16.285157zm0 0" fill="#d1a582"/><path d="m123.375 415.742188c-10.078125-1.875-19.761719 4.773437-21.636719 14.847656-1.171875 6.3125-2.058593 12.425781-2.671875 18.585937 10.707032 7.105469 22.945313 12.382813 36.164063 15.332031.300781-9.269531 1.273437-17.894531 2.992187-27.125 1.875-10.078124-4.773437-19.765624-14.847656-21.640624zm0 0" fill="#d1a582"/><path d="m250.257812 372.027344c0-45.175782-40.496093-81.800782-90.457031-81.800782-49.957031 0-90.453125 36.625-90.453125 81.800782 0 45.179687 40.496094 81.804687 90.453125 81.804687 49.960938 0 90.457031-36.625 90.457031-81.804687zm0 0" fill="#ddaf89"/><path d="m241.5 319.507812c-22.167969 18.394532-50.640625 29.457032-81.695312 29.457032-31.058594 0-59.53125-11.0625-81.699219-29.457032-4.710938 6.101563-8.644531 12.75-11.621094 19.824219-4.0625 9.636719-.316406 20.808594 8.703125 26.105469 24.828125 14.574219 53.746094 22.933594 84.617188 22.933594 30.871093 0 59.785156-8.359375 84.617187-22.933594 9.019531-5.296875 12.761719-16.46875 8.703125-26.105469-2.980469-7.078125-6.910156-13.722656-11.625-19.824219zm0 0" fill="#7f9ae6"/><path d="m118.605469 342.183594c-14.929688-5.070313-28.621094-12.820313-40.5-22.675782-4.714844 6.101563-8.644531 12.75-11.625 19.824219-4.058594 9.636719-.316407 20.808594 8.707031 26.105469 12.90625 7.578125 26.929688 13.457031 41.753906 17.375-5.4375-10.914062-3.898437-27.292969 1.664063-40.628906zm0 0" fill="#738cd1"/><path d="m121.898438 194.472656c-4.109376 0-8.25-1.25-11.828126-3.847656l-24.800781-18.015625c-10.859375-7.890625-25.507812-7.234375-35.617187 1.59375l-16.238282 14.179687c-8.386718 7.320313-21.121093 6.457032-28.441406-1.929687-7.320312-8.386719-6.457031-21.117187 1.925782-28.4375l16.238281-14.179687c11.710937-10.222657 26.710937-16.234376 42.238281-16.929688 15.53125-.695312 31.007812 3.953125 43.585938 13.085938l24.796874 18.015624c9.007813 6.542969 11.003907 19.148438 4.464844 28.152344-3.945312 5.429688-10.089844 8.3125-16.324218 8.3125zm0 0" fill="#495059"/><path d="m197.707031 194.472656c-6.234375 0-12.378906-2.878906-16.324219-8.3125-6.542968-9.003906-4.542968-21.609375 4.460938-28.152344l24.800781-18.015624c12.578125-9.132813 28.058594-13.777344 43.582031-13.085938 15.527344.695312 30.53125 6.707031 42.238282 16.933594l16.238281 14.175781c8.386719 7.324219 9.25 20.054687 1.929687 28.441406-7.324218 8.386719-20.054687 9.246094-28.441406 1.925781l-16.238281-14.175781c-10.109375-8.828125-24.757813-9.484375-35.617187-1.597656l-24.800782 18.015625c-3.574218 2.597656-7.722656 3.847656-11.828125 3.847656zm0 0" fill="#495059"/><path d="m159.800781 354.113281c102.324219 0 148.4375-46.871093 134.042969-112.875-15.464844-70.925781-64.179688-109.75-134.042969-109.75-69.859375 0-118.574219 38.824219-134.039062 109.75-14.394531 66.003907 31.71875 112.875 134.039062 112.875zm0 0" fill="#ddaf89"/><path d="m185.070312 391.558594c0 13.957031-11.3125 25.269531-25.269531 25.269531-13.953125 0-25.265625-11.3125-25.265625-25.269531 0-13.953125 11.3125-25.265625 25.265625-25.265625 13.957031 0 25.269531 11.3125 25.269531 25.265625zm0 0" fill="#f6e06a"/><path d="m120.058594 224.179688c0-11.960938-12.179688-21.660157-27.203125-21.660157-15.023438 0-27.199219 9.699219-27.199219 21.660157 0 11.964843 12.175781 21.660156 27.199219 21.660156 15.023437 0 27.203125-9.695313 27.203125-21.660156zm0 0" fill="#ffdbdb"/><path d="m272.703125 224.179688c0-11.960938-12.175781-21.660157-27.199219-21.660157-15.023437 0-27.203125 9.699219-27.203125 21.660157 0 11.964843 12.179688 21.660156 27.203125 21.660156 15.023438 0 27.199219-9.695313 27.199219-21.660156zm0 0" fill="#ffdbdb"/><g fill="#495059"><path d="m108.707031 210.070312c-4.140625 0-7.5-3.355468-7.5-7.5v-9.605468c0-4.140625 3.359375-7.5 7.5-7.5 4.144531 0 7.5 3.359375 7.5 7.5v9.605468c0 4.144532-3.355469 7.5-7.5 7.5zm0 0"/><path d="m116.519531 188.839844h-15.621093c-4.140626 0-7.5-3.355469-7.5-7.5 0-4.140625 3.359374-7.5 7.5-7.5h15.621093c4.140625 0 7.5 3.359375 7.5 7.5 0 4.144531-3.359375 7.5-7.5 7.5zm0 0"/><path d="m229.652344 210.070312c-4.144532 0-7.5-3.355468-7.5-7.5v-9.605468c0-4.140625 3.355468-7.5 7.5-7.5 4.140625 0 7.5 3.359375 7.5 7.5v9.605468c0 4.144532-3.359375 7.5-7.5 7.5zm0 0"/><path d="m200.050781 262.1875c-5.597656-6.289062-13.652343-9.964844-23.371093-10.695312v-20.097657l12.617187-5.609375c4.941406-2.199218 6.6875-8.332031 3.648437-12.800781-2.25-3.3125-5.625-5.695313-9.5-6.710937-9.351562-2.445313-19.175781-2.445313-28.53125 0-3.871093 1.015624-7.246093 3.398437-9.496093 6.710937-3.042969 4.46875-1.292969 10.601563 3.648437 12.800781l12.613282 5.609375v21.179688c-10.546876 2.203125-20.792969 7.289062-28.179688 14.324219-3 2.855468-3.113281 7.605468-.257812 10.605468 1.476562 1.546875 3.453124 2.324219 5.433593 2.324219 1.859375 0 3.71875-.6875 5.171875-2.066406 7.488282-7.136719 20.074219-11.8125 30.636719-11.378907 4.367187.179688 10.40625 1.328126 14.359375 5.777344 2.753906 3.09375 7.496094 3.371094 10.589844.617188s3.371094-7.496094.617187-10.589844zm0 0"/></g><path d="m191.160156 83.847656-21.527344 19.898438c-5.550781 5.132812-14.109374 5.132812-19.660156 0l-21.527344-19.898438h-46.0625c-18.097656 0-32.765624-14.667968-32.765624-32.761718v-18.320313c0-18.097656 14.667968-32.765625 32.761718-32.765625h154.847656c18.09375 0 32.761719 14.667969 32.761719 32.765625v18.320313c0 18.09375-14.667969 32.765624-32.761719 32.765624h-46.066406zm0 0" fill="#dfe3e5"/><path d="m159.800781 66.535156c-13.570312 0-24.609375-11.039062-24.609375-24.609375 0-13.574219 11.039063-24.613281 24.609375-24.613281 13.574219 0 24.613281 11.039062 24.613281 24.613281 0 13.570313-11.039062 24.609375-24.613281 24.609375zm0-34.222656c-5.296875 0-9.609375 4.3125-9.609375 9.613281s4.3125 9.609375 9.609375 9.609375c5.300781 0 9.613281-4.308594 9.613281-9.609375s-4.3125-9.613281-9.613281-9.613281zm0 0" fill="#495059"/><path d="m95.683594 66.535156c-13.570313 0-24.613282-11.039062-24.613282-24.609375 0-13.574219 11.042969-24.613281 24.613282-24.613281 13.570312 0 24.613281 11.039062 24.613281 24.613281 0 13.570313-11.039063 24.609375-24.613281 24.609375zm0-34.222656c-5.300782 0-9.613282 4.3125-9.613282 9.613281s4.3125 9.609375 9.613282 9.609375c5.300781 0 9.613281-4.308594 9.613281-9.609375s-4.3125-9.613281-9.613281-9.613281zm0 0" fill="#495059"/><path d="m223.921875 66.535156c-13.574219 0-24.613281-11.039062-24.613281-24.609375 0-13.574219 11.039062-24.613281 24.613281-24.613281 13.570313 0 24.613281 11.039062 24.613281 24.613281 0 13.570313-11.042968 24.609375-24.613281 24.609375zm0-34.222656c-5.300781 0-9.613281 4.3125-9.613281 9.613281s4.3125 9.609375 9.613281 9.609375c5.296875 0 9.613281-4.308594 9.613281-9.609375s-4.3125-9.613281-9.613281-9.613281zm0 0" fill="#495059"/><path d="m282.398438 363.160156c-2.21875.21875-4.515626.039063-6.792969-.59375-9.871094-2.75-15.648438-12.980468-12.902344-22.851562 2.261719-8.125-2.078125-19.164063-12.21875-31.082032-6.640625-7.808593-5.699219-19.519531 2.105469-26.160156 7.808594-6.640625 19.515625-5.695312 26.15625 2.109375 23.558594 27.683594 23.722656 50.671875 19.710937 65.082031-2.113281 7.59375-8.65625 12.765626-16.058593 13.496094zm0 0" fill="#c49b7a"/></svg>