<svg viewBox="0 -49 511.99923 511" xmlns="http://www.w3.org/2000/svg"><path d="m36.574219 237.207031c7.644531-5.351562 18.183593-3.492187 23.535156 4.152344l27.847656 39.769531c5.351563 7.644532 3.496094 18.183594-4.148437 23.535156-11.261719 7.886719-14.011719 23.464844-6.125 34.726563 7.886718 11.265625 23.464844 14.011719 34.730468 6.125 8.558594-5.996094 12.492188-16.800781 9.792969-26.886719-2.414062-9.011718 2.941407-18.273437 11.949219-20.691406 9.015625-2.414062 18.28125 2.9375 20.695312 11.953125 6.363282 23.753906-2.902343 49.195313-23.054687 63.304687-26.527344 18.574219-63.21875 12.105469-81.792969-14.421874-15.207031-21.71875-13.628906-50.25 2-70.074219l-19.578125-27.960938c-5.351562-7.644531-3.496093-18.175781 4.148438-23.53125zm0 0" fill="#7f9ae6"/><path d="m31.285156 208.609375c0 8.640625-7.003906 15.644531-15.644531 15.644531-8.636719 0-15.640625-7.003906-15.640625-15.644531 0-8.636719 7.003906-15.640625 15.640625-15.640625 8.640625 0 15.644531 7.003906 15.644531 15.640625zm0 0" fill="#7f9ae6"/><path d="m359.425781 348.738281c-21.457031 0-41.371093-11.25-63.832031-35.003906-6.203125-6.5625-5.914062-16.910156.644531-23.117187 6.5625-6.207032 16.910157-5.914063 23.117188.648437 27.910156 29.511719 41.867187 27.0625 57.21875 20.792969 8.359375-3.417969 17.90625.59375 21.320312 8.953125 3.414063 8.359375-.59375 17.90625-8.957031 21.320312-10.367188 4.234375-20.089844 6.40625-29.511719 6.40625zm0 0" fill="#495059"/><g fill="#ddaf89"><path d="m206.796875 413.355469c-10.570313 0-19.523437-8.140625-20.355469-18.855469-2.140625-27.484375-1.28125-48 2.964844-70.816406 2.066406-11.097656 12.738281-18.417969 23.832031-16.355469 11.097657 2.066406 18.417969 12.734375 16.355469 23.832031-3.59375 19.3125-4.265625 36.179688-2.398438 60.167969.875 11.253906-7.539062 21.085937-18.792968 21.964844-.539063.039062-1.074219.0625-1.605469.0625zm0 0"/><path d="m299.933594 413.355469c-.535156 0-1.070313-.023438-1.609375-.066407-11.253907-.875-19.667969-10.707031-18.792969-21.960937 1.867188-23.988281 1.195312-40.859375-2.398438-60.167969-2.0625-11.097656 5.257813-21.765625 16.355469-23.832031 11.09375-2.070313 21.769531 5.257813 23.832031 16.355469 4.246094 22.816406 5.105469 43.332031 2.964844 70.816406-.832031 10.714844-9.785156 18.855469-20.351562 18.855469zm0 0"/><path d="m369.910156 288.382812c-13.027344 0-26.714844-3.21875-40.902344-9.640624-10.285156-4.652344-14.847656-16.761719-10.195312-27.046876 4.65625-10.28125 16.765625-14.847656 27.046875-10.195312 30.015625 13.582031 44.203125 1.160156 49.992187-7.457031 6.296876-9.371094 18.996094-11.863281 28.363282-5.570313 9.371094 6.296875 11.863281 18.996094 5.570312 28.363282-9.429687 14.035156-23.46875 24.253906-39.527344 28.773437-6.574218 1.847656-13.367187 2.773437-20.347656 2.773437zm0 0"/><path d="m190.199219 278.171875c-.144531.03125-.285157.058594-.429688.085937-30.675781 5.644532-58.648437-.285156-78.769531-16.695312-17.445312-14.230469-27.328125-35.597656-27.824219-60.167969-.230469-11.285156 8.738281-20.613281 20.019531-20.847656 11.285157-.230469 20.621094 8.734375 20.851563 20.019531.257813 12.742188 4.5625 22.605469 12.792969 29.320313 10.519531 8.578125 27.117187 11.558593 45.53125 8.167969 11.101562-2.042969 21.757812 5.300781 23.800781 16.402343 2.019531 10.957031-5.113281 21.480469-15.972656 23.714844zm0 0"/></g><path d="m182.371094 238.054688c-14.65625 2.699218-28.148438 1.347656-38.355469-3.632813-2.144531 7.933594-3.289063 16.222656-3.289063 24.753906 0 6.160157.59375 12.199219 1.734376 18.0625 14.382812 3.71875 30.433593 4.125 47.3125 1.019531.140624-.027343.285156-.054687.425781-.085937 10.859375-2.230469 17.992187-12.757813 15.972656-23.714844-2.042969-11.101562-12.699219-18.445312-23.800781-16.402343zm0 0" fill="#d1a582"/><path d="m366.261719 259.175781c0-4.023437-.261719-7.992187-.753907-11.898437-5.640624-.613282-12.148437-2.382813-19.648437-5.777344-10.28125-4.652344-22.390625-.085938-27.046875 10.195312-4.652344 10.285157-.089844 22.394532 10.195312 27.046876 11.273438 5.101562 22.230469 8.175781 32.792969 9.226562 2.898438-9.144531 4.460938-18.804688 4.460938-28.792969zm0 0" fill="#d1a582"/><path d="m317.320312 323.683594c-2.0625-11.097656-12.738281-18.425782-23.832031-16.355469-11.097656 2.0625-18.417969 12.734375-16.355469 23.832031 1.800782 9.671875 2.867188 18.734375 3.25 28.378906 14.542969-3.28125 27.980469-9.148437 39.707032-17.039062-.667969-6.226562-1.578125-12.433594-2.769532-18.816406zm0 0" fill="#d1a582"/><path d="m213.238281 307.328125c-11.089843-2.0625-21.765625 5.257813-23.832031 16.355469-1.1875 6.386718-2.101562 12.589844-2.765625 18.816406 11.722656 7.894531 25.164063 13.761719 39.707031 17.042969.378906-9.648438 1.449219-18.710938 3.246094-28.382813 2.066406-11.097656-5.257812-21.765625-16.355469-23.832031zm0 0" fill="#d1a582"/><path d="m353.003906 259.175781c0-49.765625-44.613281-90.109375-99.640625-90.109375-55.027343 0-99.636719 40.34375-99.636719 90.109375 0 49.761719 44.609376 90.105469 99.636719 90.105469 55.027344 0 99.640625-40.34375 99.640625-90.105469zm0 0" fill="#ddaf89"/><path d="m343.355469 201.320312c-24.417969 20.261719-55.78125 32.449219-89.992188 32.449219-34.210937 0-65.570312-12.1875-89.988281-32.449219-5.195312 6.722657-9.523438 14.042969-12.804688 21.839844-4.472656 10.617188-.347656 22.921875 9.585938 28.753906 27.351562 16.054688 59.203125 25.265626 93.207031 25.265626 34.007813 0 65.855469-9.210938 93.207031-25.265626 9.933594-5.832031 14.058594-18.136718 9.585938-28.753906-3.28125-7.796875-7.609375-15.117187-12.800781-21.839844zm0 0" fill="#7f9ae6"/><path d="m207.984375 226.300781c-16.441406-5.585937-31.523437-14.121093-44.609375-24.980469-5.195312 6.722657-9.523438 14.042969-12.804688 21.839844-4.472656 10.617188-.347656 22.921875 9.585938 28.753906 14.222656 8.347657 29.667969 14.824219 45.992188 19.136719-5.988282-12.019531-4.292969-30.0625 1.835937-44.75zm0 0" fill="#738cd1"/><path d="m225.519531 81.890625c-4.101562-.359375-8.132812-1.972656-11.480469-4.882813l-23.199218-20.164062c-10.160156-8.828125-24.851563-9.453125-35.722656-1.519531l-17.460938 12.746093c-9.015625 6.578126-21.660156 4.605469-28.242188-4.410156-6.582031-9.019531-4.605468-21.664062 4.410157-28.246094l17.460937-12.742187c12.59375-9.1875 28.105469-13.886719 43.675782-13.222656 15.578124.664062 30.632812 6.660156 42.398437 16.882812l23.199219 20.164063c8.425781 7.324218 9.320312 20.089844 1.996094 28.515625-4.414063 5.078125-10.808594 7.421875-17.035157 6.878906zm0 0" fill="#495059"/><path d="m301.253906 88.515625c-6.230468-.546875-12.117187-3.964844-15.582031-9.730469-5.746094-9.570312-2.652344-21.988281 6.917969-27.734375l26.351562-15.832031c13.359375-8.023438 29.234375-11.3125 44.679688-9.265625 15.453125 2.054687 29.914062 9.371094 40.71875 20.609375l14.980468 15.582031c7.738282 8.046875 7.488282 20.839844-.558593 28.578125-8.046875 7.738282-20.84375 7.484375-28.578125-.5625l-14.984375-15.582031c-9.328125-9.703125-23.902344-11.636719-35.441407-4.703125l-26.351562 15.828125c-3.800781 2.28125-8.050781 3.171875-12.152344 2.8125zm0 0" fill="#495059"/><path d="m249.433594 244.679688c102.21875 8.945312 152.382812-33.851563 143.773437-101.042969-9.25-72.207031-54.523437-115.246094-124.316406-121.355469-69.792969-6.105469-121.847656 28.421875-143.496094 97.925781-20.148437 64.675781 21.820313 115.53125 124.039063 124.472657zm0 0" fill="#ddaf89"/><path d="m275.34375 280.6875c0 15.371094-12.460938 27.832031-27.832031 27.832031-15.371094 0-27.832031-12.460937-27.832031-27.832031s12.460937-27.832031 27.832031-27.832031c15.371093 0 27.832031 12.460937 27.832031 27.832031zm0 0" fill="#f6e06a"/><path d="m309.167969 142.039062c-1.152344 13.128907 11.28125 24.9375 27.765625 26.382813 16.484375 1.441406 30.78125-8.03125 31.929687-21.15625 1.148438-13.128906-11.285156-24.941406-27.769531-26.382813-16.484375-1.441406-30.777344 8.027344-31.925781 21.15625zm0 0" fill="#ffdbdb"/><path d="m201.347656 132.632812c1.148438-13.125-11.285156-24.9375-27.769531-26.382812-16.484375-1.441406-30.777344 8.03125-31.929687 21.160156-1.148438 13.125 11.285156 24.9375 27.769531 26.378906 16.484375 1.445313 30.777343-8.027343 31.929687-21.15625zm0 0" fill="#ffdbdb"/><path d="m323.695312 126.933594c-.21875 0-.4375-.007813-.664062-.027344-4.125-.363281-7.175781-4-6.816406-8.125l.921875-10.539062c.359375-4.128907 3.996093-7.175782 8.125-6.820313 4.128906.363281 7.179687 4 6.816406 8.125l-.921875 10.539063c-.339844 3.90625-3.613281 6.847656-7.460938 6.847656zm0 0" fill="#495059"/><path d="m190.984375 115.324219c-.222656 0-.441406-.007813-.664063-.027344-4.125-.363281-7.179687-4-6.816406-8.128906l.921875-10.539063c.359375-4.125 4.003907-7.179687 8.125-6.816406 4.128907.359375 7.179688 4 6.816407 8.125l-.921876 10.542969c-.339843 3.898437-3.617187 6.84375-7.460937 6.84375zm0 0" fill="#495059"/><path d="m282.40625 127.335938c-2.148438-3.847657-5.625-6.789063-9.777344-8.273438-10.027344-3.582031-20.808594-4.527344-31.304687-2.738281-4.347657.742187-8.28125 3.03125-11.066407 6.449219-3.765624 4.613281-2.4375 11.511718 2.773438 14.394531l14.03125 7.773437-2.199219 25.160156c-.363281 4.125 2.691407 7.761719 6.816407 8.125.222656.019532.441406.027344.664062.027344 3.84375 0 7.121094-2.941406 7.460938-6.847656l2.203124-25.160156 15.167969-5.214844c5.632813-1.9375 8.136719-8.496094 5.230469-13.695312zm0 0" fill="#495059"/><path d="m276.96875 200.113281c-1.304688 14.914063-13.359375 13.46875-28.269531 12.164063-14.910157-1.304688-27.03125-1.976563-25.726563-16.886719 1.304688-14.910156 14.449219-25.941406 29.359375-24.636719 14.910157 1.304688 25.941407 14.449219 24.636719 29.359375zm0 0" fill="#d16283"/><path d="m328.773438 105.367188c-1.589844 0-3.1875-.140626-4.777344-.417969-7.839844-1.382813-14.691406-6.09375-18.804688-12.917969-2.136718-3.546875-.996094-8.15625 2.550782-10.296875 3.546874-2.132813 8.15625-.992187 10.296874 2.554687 1.875 3.113282 4.996094 5.257813 8.5625 5.886719 3.5625.628907 7.234376-.320312 10.0625-2.601562 3.222657-2.605469 7.941407-2.101563 10.546876 1.121093 2.601562 3.222657 2.097656 7.945313-1.125 10.546876-4.945313 3.992187-11.066407 6.125-17.3125 6.125zm0 0" fill="#495059"/><path d="m471.894531 164.886719c-9.191406 1.621093-17.953125-4.515625-19.574219-13.707031l-8.433593-47.816407c-1.617188-9.1875 4.515625-17.953125 13.707031-19.574219 13.542969-2.386718 22.617188-15.34375 20.226562-28.886718-2.386718-13.539063-15.34375-22.613282-28.886718-20.226563-10.289063 1.816407-18.421875 9.945313-20.238282 20.226563-1.621093 9.191406-10.386718 15.324218-19.574218 13.703125-9.191406-1.621094-15.324219-10.386719-13.703125-19.574219 4.273437-24.21875 23.421875-43.363281 47.648437-47.632812 31.890625-5.625 62.410156 15.746093 68.035156 47.636718 4.601563 26.109375-8.886718 51.300782-31.429687 62.664063l5.929687 33.613281c1.617188 9.191406-4.519531 17.953125-13.707031 19.574219zm0 0" fill="#7f9ae6"/><path d="m494.421875 199.652344c0 8.636718-7.003906 15.640625-15.640625 15.640625-8.640625 0-15.644531-7.003907-15.644531-15.640625 0-8.640625 7.003906-15.644532 15.644531-15.644532 8.636719 0 15.640625 7.003907 15.640625 15.644532zm0 0" fill="#7f9ae6"/></svg>