<?xml version="1.0" encoding="utf-8"?>
<!-- Generator: Adobe Illustrator 28.1.0, SVG Export Plug-In . SVG Version: 6.00 Build 0)  -->
<svg version="1.1" id="Layer_1" xmlns="http://www.w3.org/2000/svg" xmlns:xlink="http://www.w3.org/1999/xlink" x="0px" y="0px"
	 viewBox="0 0 512 512" style="enable-background:new 0 0 512 512;" xml:space="preserve">
<style type="text/css">
	.st0{fill:#F28F8F;}
	.st1{fill:#FFFFFF;}
</style>
<circle class="st0" cx="256" cy="256" r="256"/>
<path class="st1" d="M375.5,204.8c0-66.1-53.3-119.5-119.5-119.5s-119.5,53.3-119.5,119.5c0,59.7,44.8,108.8,102.4,117.3v36.3h-17.1
	c-10.7,0-17.1,6.4-17.1,17.1c0,10.7,6.4,17.1,17.1,17.1h17.1v17.1c0,10.7,6.4,17.1,17.1,17.1c10.7,0,17.1-6.4,17.1-17.1v-17.1h17.1
	c10.7,0,17.1-6.4,17.1-17.1c0-10.7-6.4-17.1-17.1-17.1h-17.1v-36.3C330.7,313.6,375.5,264.5,375.5,204.8L375.5,204.8z M256,290.1
	c-46.9,0-85.3-38.4-85.3-85.3s38.4-85.3,85.3-85.3s85.3,38.4,85.3,85.3S302.9,290.1,256,290.1z"/>
</svg>
