<?xml version="1.0" encoding="utf-8"?>
<!-- Generator: Adobe Illustrator 28.1.0, SVG Export Plug-In . SVG Version: 6.00 Build 0)  -->
<svg version="1.1" id="Capa_1" xmlns="http://www.w3.org/2000/svg" xmlns:xlink="http://www.w3.org/1999/xlink" x="0px" y="0px"
	 viewBox="0 0 512 512" style="enable-background:new 0 0 512 512;" xml:space="preserve">
<style type="text/css">
	.st0{fill:#7A6D79;}
	.st1{fill:#EFEDEF;}
	.st2{fill:#E19974;}
	.st3{fill:#FFCEBF;}
	.st4{fill:#5F99D7;}
	.st5{fill:#5DE1C4;}
</style>
<g>
	<path class="st0" d="M289.4,197.1h32.6v124h-32.6V197.1z"/>
	<path class="st1" d="M179.1,217V17.5c0-5.5,4.5-10,10-10h233.1c5.5,0,10,4.5,10,10V217c0,5.5-4.5,10-10,10H189.1
		C183.6,227,179.1,222.5,179.1,217z"/>
	<g>
		<ellipse class="st2" cx="305.6" cy="66.7" rx="14.6" ry="14.6"/>
		<ellipse class="st2" cx="356.9" cy="90.5" rx="14.6" ry="14.6"/>
		<ellipse class="st2" cx="254.3" cy="90.5" rx="14.6" ry="14.6"/>
		<path class="st2" d="M338.9,135.2c-3-1.1-5.4-3.5-6.9-6.4c-4.8-9.7-14.8-16.3-26.3-16.3s-21.5,6.6-26.3,16.3
			c-1.4,2.9-3.8,5.2-6.9,6.4c-8.8,3.3-15.1,11.8-15.1,21.8c0,12.8,10.4,23.3,23.3,23.3h50.2c12.8,0,23.3-10.4,23.3-23.3
			C354,147,347.7,138.5,338.9,135.2L338.9,135.2z"/>
	</g>
	<path class="st3" d="M350.2,342.1c2.4-2.6,3.8-6.1,3.8-10c0-3.8-1.4-7.3-3.8-10c-1.7-1.9-1.6-4.7,0.1-6.7c2.4-2.8,3.8-6.4,3.7-10.4
		c-0.3-8.1-7.3-14.4-15.4-14.4h-49.2v-30.4h-13.9c-12.1,0-22.9,7.8-26.7,19.3l-7.9,24.2c-1.8,5.6-5.2,10.5-9.7,14.3l-92.5,77.6
		l47.5,56.7l58-48.6c2.9-2.4,6.5-3.7,10.2-3.7h76.1c8.1,0,15.2-6.6,15.4-14.7c0-2.5-0.5-4.9-1.6-7c-1.2-2.4-0.3-5.3,2.1-6.7
		c4.6-2.6,7.7-7.4,7.7-13.1c0-3.8-1.4-7.3-3.8-10C348.5,346.8,348.5,344,350.2,342.1L350.2,342.1z"/>
	<path class="st4" d="M79.9,431.7l76-63.8l61.1,72.8l-76,63.8L79.9,431.7z"/>
	<path class="st5" d="M166,353.5l66.9,79.7c3.6,4.3,3,10.6-1.2,14.2l-10.7,9c-4.3,3.6-10.6,3-14.2-1.2l-66.9-79.7
		c-3.6-4.3-3-10.6,1.2-14.2l10.7-9C156,348.7,162.4,349.2,166,353.5z"/>
</g>
</svg>
