<svg id="Layer_1" enable-background="new 0 0 24 24" height="512" viewBox="0 0 24 24" width="512" xmlns="http://www.w3.org/2000/svg"><switch><g><circle cx="12" cy="12" fill="#03b8ff" r="12"/><path d="m18.9 5.5c-.1-.2-.2-.4-.4-.4-.1-.1-.2-.1-.3-.1h-3.3c-.5 0-.8.4-.8.8 0 .5.4.8.8.8h1.3l-2 2c-2.5-1.9-6.2-1.4-8.1 1.2s-1.4 6.2 1.2 8.1 6.2 1.4 8.1-1.2c1.5-2 1.5-4.9 0-6.9l2-2v1.3c0 .5.4.8.8.8s.8-.3.8-.8v-3.3c0-.1 0-.2-.1-.3zm-5.3 10.6c-1.6 1.6-4.2 1.6-5.8.1-1.6-1.6-1.6-4.2-.1-5.8s4.2-1.6 5.8-.1c0 0 0 0 .1.1 1.6 1.6 1.6 4.1 0 5.7z" fill="#fff"/></g></switch></svg>