<?xml version="1.0" encoding="utf-8"?>
<!-- Generator: Adobe Illustrator 28.1.0, SVG Export Plug-In . SVG Version: 6.00 Build 0)  -->
<svg version="1.1" id="Layer_1" xmlns="http://www.w3.org/2000/svg" xmlns:xlink="http://www.w3.org/1999/xlink" x="0px" y="0px"
	 viewBox="0 0 512 512" style="enable-background:new 0 0 512 512;" xml:space="preserve">
<style type="text/css">
	.st0{fill:#3DC6FF;}
	.st1{fill:#8BDDFF;}
	.st2{fill-rule:evenodd;clip-rule:evenodd;fill:#F3EEE9;}
	.st3{fill-rule:evenodd;clip-rule:evenodd;fill:#DB8A53;}
	.st4{fill:#DB8A53;}
</style>
<g>
	<path class="st0" d="M190.7,375.9v-7.4c0-16.5,6.7-32.6,18.3-44.3l24.3-24.3l-21.2-21.2L187.8,303c-11.6,11.6-27.8,18.3-44.3,18.3
		h-7.4c-33.6,0-54,20.3-54.6,20.9l-64.9,67.2C-6.8,433.6-4.7,471.3,18,494c22.7,22.7,60.5,24.7,84.5,1.4l67.2-64.9
		C170.4,429.9,190.7,409.4,190.7,375.9z"/>
	<path class="st1" d="M336.3,351.3c-96.9,0-175.7-78.8-175.7-175.7C160.7,78.8,239.5,0,336.3,0S512,78.8,512,175.7
		C512,272.5,433.2,351.3,336.3,351.3z"/>
	<g>
		<path class="st2" d="M481.8,168.2c-1.4-27.3-10.3-52.6-24.7-73.9C430.9,55.5,386.5,30,336.3,30C256,30,190.7,95.3,190.7,175.7
			c0,40.2,16.3,76.6,42.7,103l0,0c23.9,23.9,56.1,39.6,91.8,42.3c3.7,0.3,7.4,0.4,11.2,0.4c80.3,0,145.7-65.3,145.7-145.7
			C482,173.2,481.9,170.7,481.8,168.2z"/>
		<path class="st3" d="M304.2,96.4c8.3,0,15,6.7,15,15c0,8.3-6.7,15-15,15s-15-6.7-15-15C289.2,103.1,295.9,96.4,304.2,96.4z"/>
		<path class="st3" d="M256,136.6c8.3,0,15,6.7,15,15c0,8.3-6.7,15-15,15s-15-6.7-15-15C241,143.3,247.7,136.6,256,136.6z"/>
		<path class="st3" d="M416.7,136.6c8.3,0,15,6.7,15,15c0,8.3-6.7,15-15,15c-8.3,0-15-6.7-15-15
			C401.7,143.3,408.4,136.6,416.7,136.6z"/>
		<path class="st3" d="M368.5,96.4c8.3,0,15,6.7,15,15c0,8.3-6.7,15-15,15c-8.3,0-15-6.7-15-15C353.5,103.1,360.2,96.4,368.5,96.4z"
			/>
	</g>
	<path class="st4" d="M352.4,254.9h-32.1c-26.4,0-47.1-21.6-47.1-47.1c0-34.9,28.4-63.2,63.2-63.2s63.2,28.4,63.2,63.2
		C399.5,233.4,378.8,254.9,352.4,254.9z"/>
</g>
</svg>
