<?xml version="1.0" encoding="utf-8"?>
<!-- Generator: Adobe Illustrator 28.1.0, SVG Export Plug-In . SVG Version: 6.00 Build 0)  -->
<svg version="1.1" xmlns="http://www.w3.org/2000/svg" xmlns:xlink="http://www.w3.org/1999/xlink" x="0px" y="0px"
	 viewBox="0 0 970.17 605.42" style="enable-background:new 0 0 970.17 605.42;" xml:space="preserve">
<style type="text/css">
	.st0{fill:#FCF9ED;}
</style>
<g id="Background">
</g>
<g id="Shadow">
</g>
<g id="Graphic_Elements">
	<g>
		<g>
			<path class="st0" d="M34.14,0L0,554.21l936.03,51.21l34.14-554.21L34.14,0z M42.93,520.26c-7.02-0.43-12.36-6.53-11.93-13.63
				c0.44-7.09,6.48-12.49,13.51-12.06c7.02,0.43,12.36,6.53,11.93,13.63C56,515.29,49.95,520.69,42.93,520.26z M46.43,463.31
				c-7.02-0.43-12.36-6.53-11.93-13.63c0.44-7.09,6.48-12.49,13.51-12.06c7.02,0.43,12.36,6.53,11.93,13.63
				C59.5,458.34,53.46,463.74,46.43,463.31z M49.94,406.36c-7.02-0.43-12.36-6.53-11.93-13.63c0.44-7.09,6.48-12.49,13.51-12.06
				c7.02,0.43,12.36,6.53,11.93,13.63C63.01,401.39,56.97,406.79,49.94,406.36z M53.45,349.41c-7.02-0.43-12.36-6.53-11.93-13.63
				c0.44-7.09,6.48-12.49,13.51-12.06c7.02,0.43,12.36,6.53,11.93,13.63C66.52,344.44,60.47,349.84,53.45,349.41z M56.96,292.46
				c-7.02-0.43-12.36-6.53-11.93-13.63c0.44-7.09,6.48-12.49,13.51-12.06c7.02,0.43,12.36,6.53,11.93,13.63
				C70.03,287.49,63.98,292.89,56.96,292.46z M60.47,235.51c-7.02-0.43-12.36-6.53-11.93-13.63c0.44-7.09,6.48-12.49,13.51-12.06
				c7.02,0.43,12.36,6.53,11.93,13.63C73.54,230.54,67.49,235.94,60.47,235.51z M63.98,178.55c-7.02-0.43-12.36-6.53-11.93-13.63
				c0.44-7.09,6.48-12.49,13.51-12.06c7.02,0.43,12.36,6.53,11.93,13.63C77.05,173.59,71,178.99,63.98,178.55z M67.48,121.6
				c-7.02-0.43-12.36-6.53-11.93-13.63c0.44-7.09,6.48-12.49,13.51-12.06c7.02,0.43,12.36,6.53,11.93,13.63
				C80.56,116.64,74.51,122.04,67.48,121.6z M70.99,64.65c-7.02-0.43-12.36-6.53-11.93-13.63c0.44-7.09,6.48-12.49,13.51-12.06
				C79.6,39.4,84.94,45.5,84.5,52.59C84.06,59.68,78.02,65.09,70.99,64.65z"/>
		</g>
	</g>
</g>
</svg>
