<svg viewBox="-38 0 511 511.99978" xmlns="http://www.w3.org/2000/svg"><path d="m102.671875 475.667969c-5.265625 0-10.519531-2.078125-14.433594-6.195313-7.566406-7.96875-7.242187-20.5625.726563-28.128906 12.277344-11.660156 18.378906-25.371094 26.105468-42.730469 5.210938-11.714843 11.121094-24.996093 19.796876-39.3125 5.699218-9.398437 17.929687-12.398437 27.328124-6.707031 9.398438 5.695312 12.402344 17.929688 6.707032 27.328125-7.375 12.167969-12.511719 23.710937-17.476563 34.871094-8.765625 19.695312-17.042969 38.296875-35.058593 55.40625-3.847657 3.65625-8.777344 5.46875-13.695313 5.46875zm0 0" fill="#495059"/><g fill="#ddaf89"><path d="m166.753906 504.5c-13.257812 0-24.269531-10.460938-24.832031-23.832031-1.441406-34.492188.003906-55.320313 1.832031-81.691407l.050782-.757812c.949218-13.703125 12.835937-24.058594 26.53125-23.09375 13.703124.949219 24.042968 12.828125 23.089843 26.53125l-.050781.757812c-1.789062 25.800782-3.082031 44.445313-1.753906 76.175782.574218 13.722656-10.085938 25.3125-23.808594 25.886718-.355469.015626-.707031.023438-1.058594.023438zm0 0"/><path d="m268.695312 504.5c-.347656 0-.703124-.007812-1.054687-.023438-13.722656-.574218-24.382813-12.164062-23.808594-25.886718 1.324219-31.730469.03125-50.375-1.753906-76.175782l-.054687-.757812c-.949219-13.703125 9.390624-25.582031 23.09375-26.53125 13.714843-.964844 25.578124 9.390625 26.527343 23.09375l.054688.757812c1.828125 26.371094 3.269531 47.199219 1.828125 81.691407-.558594 13.367187-11.574219 23.832031-24.832032 23.832031zm0 0"/><path d="m97.695312 438.703125c-13.734374 0-24.867187-11.136719-24.867187-24.871094 0-39.84375 6.046875-72.304687 19.601563-105.25 5.222656-12.703125 19.757812-18.765625 32.460937-13.535156 12.703125 5.226563 18.761719 19.757813 13.535156 32.460937-10.96875 26.660157-15.859375 53.28125-15.859375 86.324219 0 13.734375-11.132812 24.871094-24.871094 24.871094zm0 0"/><path d="m337.753906 438.703125c-13.734375 0-24.871094-11.136719-24.871094-24.871094 0-33.042969-4.890624-59.664062-15.859374-86.324219-5.226563-12.703124.835937-27.238281 13.535156-32.460937 12.703125-5.230469 27.238281.832031 32.464844 13.535156 13.554687 32.945313 19.601562 65.40625 19.601562 105.25 0 13.734375-11.136719 24.871094-24.871094 24.871094zm0 0"/></g><path d="m124.890625 295.042969c-12.703125-5.226563-27.238281.835937-32.460937 13.539062-3.308594 8.035157-6.160157 16.046875-8.59375 24.140625 3.921874 27.886719 18.070312 52.882813 38.882812 71.75.863281-28.796875 5.796875-52.875 15.707031-76.964844 5.226563-12.703124-.832031-27.238281-13.535156-32.464843zm0 0" fill="#d1a582"/><path d="m170.335938 375.125c-13.695313-.964844-25.582032 9.390625-26.53125 23.089844l-.050782.761718c-.488281 7.035157-.949218 13.675782-1.335937 20.289063 14.550781 8.972656 31.113281 15.417969 48.921875 18.65625.386718-11.71875 1.148437-22.738281 2.035156-35.507813l.050781-.757812c.949219-13.703125-9.390625-25.582031-23.089843-26.53125zm0 0" fill="#d1a582"/><path d="m291.699219 398.976562-.054688-.761718c-.949219-13.699219-12.816406-24.054688-26.527343-23.089844-13.703126.949219-24.042969 12.828125-23.09375 26.53125l.054687.757812c.886719 12.769532 1.648437 23.789063 2.03125 35.507813 17.8125-3.238281 34.371094-9.683594 48.921875-18.65625-.382812-6.613281-.84375-13.253906-1.332031-20.289063zm0 0" fill="#d1a582"/><path d="m351.617188 332.722656c-2.433594-8.09375-5.285157-16.101562-8.59375-24.140625-5.226563-12.703125-19.757813-18.765625-32.460938-13.535156-12.703125 5.226563-18.761719 19.757813-13.535156 32.460937 9.910156 24.089844 14.84375 48.171876 15.707031 76.964844 20.8125-18.863281 34.960937-43.863281 38.882813-71.75zm0 0" fill="#d1a582"/><path d="m338.96875 316.894531c0-60.554687-54.28125-109.644531-121.242188-109.644531-66.960937 0-121.242187 49.089844-121.242187 109.644531 0 60.554688 54.28125 109.640625 121.242187 109.640625 66.960938 0 121.242188-49.085937 121.242188-109.640625zm0 0" fill="#ddaf89"/><path d="m327.226562 246.496094c-29.710937 24.652344-67.875 39.480468-109.5 39.480468-41.628906 0-79.789062-14.828124-109.5-39.480468-6.320312 8.179687-11.585937 17.085937-15.582031 26.570312-5.441406 12.917969-.421875 27.894532 11.667969 34.992188 33.277344 19.53125 72.035156 30.742187 113.414062 30.742187 41.378907 0 80.132813-11.210937 113.414063-30.742187 12.089844-7.097656 17.109375-22.074219 11.667969-34.992188-3.996094-9.484375-9.261719-18.390625-15.582032-26.570312zm0 0" fill="#7f9ae6"/><path d="m162.507812 276.890625c-20.007812-6.796875-38.359374-17.183594-54.28125-30.394531-6.320312 8.179687-11.585937 17.085937-15.582031 26.570312-5.441406 12.917969-.421875 27.894532 11.667969 34.992188 17.300781 10.15625 36.097656 18.039062 55.960938 23.289062-7.285157-14.628906-5.222657-36.585937 2.234374-54.457031zm0 0" fill="#5e78bf"/><path d="m167.976562 96.273438c-5.390624 0-10.832031-1.644532-15.527343-5.054688l-32.550781-23.644531c-14.253907-10.351563-33.476563-9.492188-46.746094 2.09375l-21.3125 18.609375c-11.007813 9.605468-27.71875 8.472656-37.328125-2.53125s-8.476563-27.71875 2.527343-37.328125l21.3125-18.605469c15.371094-13.417969 35.058594-21.3125 55.441407-22.222656 20.382812-.910156 40.695312 5.1875 57.203125 17.175781l32.550781 23.644531c11.820313 8.585938 14.441406 25.132813 5.855469 36.953125-5.175782 7.125-13.246094 10.910157-21.425782 10.910157zm0 0" fill="#495059"/><path d="m267.476562 96.273438c-8.183593 0-16.25-3.785157-21.425781-10.910157-8.585937-11.820312-5.964843-28.363281 5.855469-36.953125l32.550781-23.640625c16.507813-11.992187 36.824219-18.085937 57.203125-17.179687 20.382813.914062 40.070313 8.804687 55.4375 22.222656l21.3125 18.605469c11.007813 9.609375 12.136719 26.324219 2.527344 37.328125-9.605469 11.007812-26.320312 12.140625-37.324219 2.53125l-21.3125-18.609375c-13.273437-11.585938-32.496093-12.449219-46.75-2.09375l-32.550781 23.644531c-4.695312 3.410156-10.136719 5.054688-15.523438 5.054688zm0 0" fill="#495059"/><path d="m217.726562 305.796875c134.296876 0 194.820313-61.519531 175.929688-148.144531-20.300781-93.089844-84.234375-144.046875-175.929688-144.046875-91.695312 0-155.632812 50.957031-175.929687 144.046875-18.890625 86.625 41.632813 148.144531 175.929687 148.144531zm0 0" fill="#ddaf89"/><path d="m251.59375 343.070312c0 18.703126-15.164062 33.867188-33.867188 33.867188-18.703124 0-33.867187-15.164062-33.867187-33.867188 0-18.703124 15.164063-33.867187 33.867187-33.867187 18.703126 0 33.867188 15.164063 33.867188 33.867187zm0 0" fill="#f6e06a"/><path d="m236.84375 166.476562c-12.535156-3.28125-25.703125-3.28125-38.238281 0-5.191407 1.359376-9.714844 4.554688-12.730469 8.992188-4.074219 5.992188-1.734375 14.210938 4.886719 17.15625l18.371093 8.167969c5.46875 2.433593 11.714844 2.433593 17.1875 0l18.367188-8.167969c6.621094-2.945312 8.964844-11.164062 4.890625-17.15625-3.019531-4.4375-7.542969-7.632812-12.734375-8.992188zm0 0" fill="#495059"/><path d="m306.277344 161.511719v-10.03125c0-4.144531-3.359375-7.5-7.5-7.5s-7.5 3.355469-7.5 7.5v10.03125c0 4.140625 3.359375 7.5 7.5 7.5s7.5-3.359375 7.5-7.5zm-134.996094 88.785156c-2.71875 3.125-2.394531 7.859375.726562 10.582031 3.125 2.722656 7.859376 2.394532 10.582032-.726562 8.867187-10.175782 21.675781-16.007813 35.136718-16.007813 13.460938 0 26.265626 5.835938 35.132813 16.007813 1.484375 1.703125 3.566406 2.574218 5.660156 2.574218 1.746094 0 3.5-.609374 4.921875-1.847656 3.125-2.722656 3.449219-7.460937.730469-10.582031-10.058594-11.539063-23.957031-18.835937-38.945313-20.679687v-20.503907c1.40625-.378906 2.792969-.867187 4.140626-1.46875l18.371093-8.167969c5.191407-2.308593 9.0625-6.765624 10.621094-12.230468s.617187-11.296875-2.578125-15.996094c-4.039062-5.9375-10.089844-10.210938-17.035156-12.027344-13.75-3.601562-28.289063-3.601562-42.039063 0-6.945312 1.816406-12.996093 6.089844-17.035156 12.027344-3.195313 4.699219-4.132813 10.53125-2.574219 15.996094 1.554688 5.464844 5.425782 9.921875 10.621094 12.230468l18.367188 8.167969c1.347656.601563 2.734374 1.089844 4.140624 1.46875v20.503907c-14.992187 1.84375-28.886718 9.144531-38.945312 20.679687zm22.53125-64.523437c-1.535156-.683594-2.09375-1.945313-2.292969-2.636719-.195312-.695313-.386719-2.0625.558594-3.449219 1.996094-2.941406 4.992187-5.054688 8.429687-5.953125 5.632813-1.476563 11.425782-2.210937 17.21875-2.210937 5.792969 0 11.585938.734374 17.21875 2.210937 3.4375.898437 6.433594 3.011719 8.429688 5.953125.941406 1.386719.753906 2.753906.554688 3.449219-.195313.691406-.753907 1.953125-2.289063 2.636719l-18.367187 8.167968c-3.527344 1.566406-7.570313 1.566406-11.09375 0zm229.53125-143.003907-21.3125-18.609375c-16.644531-14.527344-37.964844-23.074218-60.039062-24.0624998-20.460938-.9101562-40.910157 4.7226558-58.039063 15.9257818-20.097656-6.59375-42.21875-9.917969-66.226563-9.917969-24.011718 0-46.132812 3.324219-66.230468 9.917969-17.125-11.203126-37.585938-16.839844-58.039063-15.9257818-22.074219.9882818-43.394531 9.5312498-60.035156 24.0624998l-21.316406 18.609375c-14.101563 12.3125-15.558594 33.804688-3.242188 47.910157 6.703125 7.679687 16.125 11.605468 25.597657 11.605468 7.925781 0 15.886718-2.75 22.308593-8.359375l1.199219-1.046875c-10.484375 18.429688-18.34375 39.523438-23.5 63.175782-6.261719 28.707031-4.285156 54.753906 5.867188 77.410156 1.695312 3.777344 6.132812 5.472656 9.910156 3.777344 3.78125-1.695313 5.472656-6.132813 3.777344-9.910157-8.8125-19.671875-10.460938-42.578125-4.898438-68.082031 8.421875-38.625 24.429688-69.789062 47.65625-92.867188.152344-.140624.296875-.285156.433594-.4375 3.351562-3.300781 6.855468-6.4375 10.503906-9.40625 13.1875-10.71875 28.066406-19.023437 44.519531-24.894531.496094-.121093.980469-.292969 1.445313-.515625 19.257812-6.664062 40.65625-10.023437 64.042968-10.023437 23.386719 0 44.785157 3.359375 64.042969 10.023437.460938.222656.949219.394532 1.445313.515625 16.453125 5.871094 31.332031 14.175781 44.519531 24.894531 3.648437 2.96875 7.148437 6.101563 10.5 9.40625.140625.152344.285156.296876.433594.4375 23.230469 23.078126 39.238281 54.242188 47.660156 92.867188 7.476563 34.289062 1.660156 64.546875-16.828125 87.5-7.507812 9.316406-16.953125 17.417969-28.207031 24.265625-.542969.242187-1.039063.546875-1.496094.894531-29.386719 17.355469-70.75 26.386719-122.070313 26.386719-51.535156 0-93.277343-9.21875-122.789062-26.875-.046875-.027344-.09375-.058594-.140625-.085937-8.917969-5.347657-16.730469-11.460938-23.335937-18.335938-2.871094-2.984375-7.621094-3.082031-10.605469-.210938-2.988281 2.871094-3.082031 7.617188-.210938 10.605469 6.492188 6.753907 13.980469 12.835938 22.382813 18.257813-.457032 7.023437 1.191406 13.910156 4.59375 19.855468-.804688 1.351563-1.527344 2.753907-2.128906 4.21875-13.945313 33.894532-20.167969 67.234376-20.167969 108.101563 0 11.21875 5.738281 21.117187 14.429687 26.929687-6.808594 10.386719-5.867187 24.488282 3.046875 33.878907 5.148438 5.421875 12.390625 8.527343 19.867188 8.527343 7.050781 0 13.75-2.671874 18.863281-7.527343 4.507812-4.28125 8.574219-8.757813 12.359375-13.621094.082031 5.902344.253906 12.167969.539063 18.964844.726562 17.394531 14.925781 31.019531 32.324218 31.019531.453125 0 .910156-.011719 1.371094-.027344 8.640625-.363281 16.621094-4.066406 22.472656-10.429687 5.855469-6.363281 8.878906-14.628907 8.515625-23.265625-.804687-19.332032-.589843-33.5-.074219-45.480469 6.105469.8125 12.339844 1.238281 18.6875 1.238281 6.34375 0 12.582032-.425781 18.683594-1.238281.519532 11.980469.734375 26.148437-.074218 45.480469-.359376 8.636718 2.664062 16.902344 8.519531 23.265625 5.851562 6.363281 13.832031 10.066406 22.476562 10.429687.457031.015625.914063.027344 1.367188.027344 9.644531 0 18.714843-4.265625 24.894531-11.699219 2.644531-3.1875 2.207031-7.914062-.980469-10.5625-3.183593-2.644531-7.914062-2.207031-10.558593.976563-3.480469 4.1875-8.710938 6.5-14.101563 6.269531-4.636719-.191406-8.917969-2.179687-12.058594-5.59375-3.140625-3.417969-4.765625-7.851563-4.570312-12.488281.878906-21.046875.574219-36.136719-.023438-48.914063 12.152344-2.988281 23.597657-7.558593 34.050781-13.457031.925782 15.101562 1.492188 29.5625 1.171876 47.609375-.070313 4.144531 3.226562 7.558594 7.367187 7.632813h.136719c4.078125 0 7.421875-3.269532 7.496094-7.367188.386718-21.949219-.492188-38.621094-1.75-57.308594 1.847656-1.394531 3.648437-2.835937 5.40625-4.320312.132812 3.59375.203124 7.269531.203124 11.058594 0 17.847656 14.523438 32.367187 32.371094 32.367187s32.371094-14.519531 32.371094-32.367187c0-40.871094-6.21875-74.210938-20.164062-108.105469-.605469-1.460938-1.328126-2.863281-2.132813-4.214844 3.398437-5.9375 5.046875-12.808594 4.597656-19.816406 11.296875-7.300781 20.925781-15.816407 28.753907-25.535157 21.433593-26.609374 28.28125-61.226562 19.804687-100.105468-5.160156-23.652344-13.019531-44.746094-23.5-63.171875l1.195313 1.042969c6.425781 5.609374 14.382812 8.359374 22.308593 8.359374 9.472657 0 18.898438-3.929687 25.601563-11.605468 12.3125-14.109375 10.855468-35.601563-3.246094-47.914063zm-325.089844 2.132813c-3.539062 2.875-6.941406 5.902344-10.222656 9.058594-7.296875 1.636718-14.109375 5.074218-19.8125 10.058593l-21.3125 18.605469c-7.875 6.875-19.875 6.058594-26.746094-1.8125-6.875-7.871094-6.058594-19.871094 1.8125-26.742188l21.3125-18.609374c14.09375-12.304688 32.152344-19.542969 50.84375-20.378907 13.558594-.601562 27.109375 2.199219 39.320313 7.992188-12.6875 5.800781-24.433594 13.078125-35.195313 21.828125zm238.070313 245.839844c-.859375 2.417968-2.167969 4.667968-3.878907 6.621093-.058593.0625-.113281.125-.167968.191407-1.398438 1.558593-3.050782 2.929687-4.933594 4.035156-22.105469 12.976562-46.015625 21.800781-71.152344 26.289062-2.367187-5.964844-6.070312-11.261718-10.757812-15.496094 35.804687-2.4375 66.355468-9.738281 90.890625-21.640624zm-118.597657 25.960937c14.539063 0 26.367188 11.828125 26.367188 26.367187 0 14.539063-11.828125 26.367188-26.367188 26.367188-14.539062 0-26.367187-11.828125-26.367187-26.367188 0-14.539062 11.828125-26.367187 26.367187-26.367187zm-27.691406-4.335937c-4.695312 4.238281-8.40625 9.539062-10.773437 15.515624-25.140625-4.492187-49.046875-13.316406-71.15625-26.292968-1.878907-1.105469-3.53125-2.472656-4.929688-4.03125-.058593-.066406-.113281-.132813-.171875-.195313-1.730468-1.980469-3.058594-4.261719-3.914062-6.710937 24.59375 11.925781 55.207031 19.261718 90.945312 21.714844zm-109.707031 101.464843c0-28.921875 3.265625-53.820312 10.371094-77.875 3.550781 19.664063 12.496093 37.691407 25.410156 52.78125-.699219 8.046875-1.042969 16.289063-1.042969 25.09375 0 9.578125-7.792968 17.371094-17.371094 17.371094-9.578124 0-17.367187-7.792969-17.367187-17.371094zm53.890625 19.839844c-6.761719 12.789063-13.902344 22.433594-23.015625 31.089844-2.3125 2.195312-5.34375 3.40625-8.53125 3.40625-3.4375 0-6.628906-1.371094-8.992187-3.859375-4.707032-4.957032-4.503907-12.816406.449218-17.523438.246094-.234375.492188-.472656.738282-.714844.933593.082032 1.875.132813 2.828124.132813 17.851563 0 32.371094-14.523437 32.371094-32.371094 0-3.789062.070313-7.460937.203125-11.058593 1.757813 1.484374 3.558594 2.929687 5.40625 4.324218-.613281 9.117188-1.128906 17.707032-1.457031 26.574219zm49.910156 45.230469c.191406 4.636718-1.429687 9.070312-4.570312 12.484375-3.140625 3.414062-7.425782 5.402343-12.058594 5.597656-9.660156.402344-17.683594-7.050781-18.082031-16.628906-1.089844-26.035157-.519531-44.234375.679687-63.824219 10.457032 5.894531 21.902344 10.464844 34.054688 13.457031-.601563 12.773438-.90625 27.867188-.023438 48.914063zm33.597656-59.867188c-62.71875 0-113.742187-45.820312-113.742187-102.140625 0-.128906.007813-.257812.007813-.382812 22.59375 12.75 46.894531 21.507812 72.378906 26.089843-.003906.15625-.011719.3125-.011719.46875 0 22.808594 18.558594 41.367188 41.367187 41.367188 22.808594 0 41.367188-18.558594 41.367188-41.367188 0-.15625-.011719-.3125-.011719-.46875 25.484375-4.582031 49.78125-13.339843 72.378907-26.089843 0 .125.007812.253906.007812.378906-.003906 56.324219-51.027344 102.144531-113.742188 102.144531zm137.398438-5.203125c0 9.578125-7.792969 17.371094-17.371094 17.371094s-17.371094-7.792969-17.371094-17.371094c0-8.804687-.339843-17.046875-1.042968-25.097656 12.914062-15.085937 21.859375-33.117187 25.414062-52.777344 7.105469 24.050781 10.371094 48.953125 10.371094 77.875zm60.164062-333.019531c-6.871093 7.875-18.871093 8.6875-26.742187 1.8125l-21.3125-18.605469c-5.707031-4.984375-12.515625-8.417969-19.816406-10.058593-3.28125-3.15625-6.683594-6.183594-10.222657-9.058594-10.757812-8.75-22.507812-16.027344-35.195312-21.828125 12.210938-5.796875 25.761719-8.601563 39.324219-7.992188 18.691406.835938 36.746093 8.074219 50.84375 20.378907l21.3125 18.609374c7.871093 6.871094 8.683593 18.871094 1.808593 26.742188zm-271.113281 80.699219v-10.03125c0-4.144531-3.359375-7.5-7.5-7.5-4.144531 0-7.5 3.355469-7.5 7.5v10.03125c0 4.140625 3.355469 7.5 7.5 7.5 4.140625 0 7.5-3.359375 7.5-7.5zm0 0"/></svg>